<?xml version="1.0" encoding="UTF-8"?>
<svg version="1.1" xmlns="http://www.w3.org/2000/svg" width="512" height="512">
<path d="M0 0 C168.96 0 337.92 0 512 0 C512 168.96 512 337.92 512 512 C343.04 512 174.08 512 0 512 C0 343.04 0 174.08 0 0 Z " fill="#F38041" transform="translate(0,0)"/>
<path d="M0 0 C2.54071988 1.2938118 3.42339859 2.60131005 4.93505859 5.00585938 C5.70281616 6.22088135 5.70281616 6.22088135 6.48608398 7.46044922 C9.01090903 11.65616699 11.45292686 15.8917546 13.84912109 20.16210938 C17.92880315 27.38222465 22.07513289 34.54592404 26.44604492 41.59423828 C29.03662109 45.8252097 29.03662109 45.8252097 29.03662109 48.03710938 C29.69662109 48.03710938 30.35662109 48.03710938 31.03662109 48.03710938 C31.07787109 46.79960937 31.11912109 45.56210937 31.16162109 44.28710938 C32.64027469 31.85474555 41.13406267 21.27200896 50.72802734 13.70263672 C57.90417827 8.446949 65.43638992 4.42204743 74.03662109 2.03710938 C75.47908203 1.59238281 75.47908203 1.59238281 76.95068359 1.13867188 C98.56677134 -4.59406186 123.32267505 -2.05891568 142.90771484 8.59960938 C156.07699606 16.49021892 165.21255999 27.46978497 169.45214844 42.33618164 C170.44140133 46.90765397 170.47036475 51.37677953 170.41162109 56.03710938 C170.42322266 56.9575 170.43482422 57.87789063 170.44677734 58.82617188 C170.39897073 70.14040388 166.92529119 79.08183824 160.03662109 88.03710938 C157.80581474 90.24587219 155.51887657 92.1009501 153.03662109 94.03710938 C152.70662109 94.69710937 152.37662109 95.35710937 152.03662109 96.03710938 C152.77009766 96.28460938 153.50357422 96.53210938 154.25927734 96.78710938 C163.19535922 100.80897463 169.26389895 110.55615315 172.99755859 119.28320312 C178.74968882 135.25817865 178.9665698 152.39110925 171.68115234 167.92773438 C162.64803125 183.71753318 148.02349102 193.41139254 130.66162109 198.28710938 C104.46449341 204.65723161 74.43627105 204.75974795 50.55615234 190.68945312 C37.36728364 182.040009 27.87508491 171.18337116 23.72412109 155.72460938 C20.86317923 140.31953779 24.25975785 124.12652196 32.41162109 110.78710938 C36.07184477 105.69462426 40.52288942 101.36785193 45.03662109 97.03710938 C45.69662109 96.37710938 46.35662109 95.71710938 47.03662109 95.03710938 C46.61251953 94.65941406 46.18841797 94.28171875 45.75146484 93.89257812 C40.49853561 88.96290608 36.38474353 83.42805433 33.03662109 77.03710938 C33.03662109 76.04710937 33.03662109 75.05710937 33.03662109 74.03710938 C25.01920134 77.9309073 17.26504306 82.11881749 9.59912109 86.66210938 C7.50678444 87.88625791 5.41433419 89.11021229 3.32177734 90.33398438 C-0.76930748 92.73597336 -4.84198909 95.16575693 -8.90478516 97.61523438 C-10.75748796 98.71446542 -12.61034532 99.81343603 -14.46337891 100.91210938 C-15.30441162 101.4298291 -16.14544434 101.94754883 -17.01196289 102.48095703 C-22.27670189 105.57723751 -25.83589716 106.87997258 -31.96337891 106.03710938 C-34.71337891 103.28710938 -34.71337891 103.28710938 -36.96337891 100.03710938 C-38.28337891 98.71710938 -39.60337891 97.39710938 -40.96337891 96.03710938 C-40.96337891 102.96710938 -40.96337891 109.89710938 -40.96337891 117.03710938 C-37.66337891 117.36710937 -34.36337891 117.69710937 -30.96337891 118.03710938 C-28.37744141 119.27148438 -28.37744141 119.27148438 -26.58837891 120.78710938 C-25.63125 121.59148437 -25.63125 121.59148437 -24.65478516 122.41210938 C-21.24296063 125.68998236 -18.14239526 128.76842138 -17.76025391 133.61132812 C-17.56997963 146.24871124 -17.56997963 146.24871124 -22.43994141 151.68554688 C-28.27272654 157.1454599 -34.02769986 159.23972246 -41.96337891 159.03710938 C-41.93981323 160.019375 -41.93981323 160.019375 -41.91577148 161.02148438 C-41.85289957 164.02660268 -41.81422403 167.031582 -41.77587891 170.03710938 C-41.75074219 171.06707031 -41.72560547 172.09703125 -41.69970703 173.15820312 C-41.63026176 180.42680859 -41.98970372 186.46621073 -46.83056641 192.27929688 C-47.49314453 192.818125 -48.15572266 193.35695313 -48.83837891 193.91210938 C-49.49580078 194.46640625 -50.15322266 195.02070313 -50.83056641 195.59179688 C-57.38179843 200.03127645 -64.2997635 199.7227556 -71.96337891 199.03710938 C-78.09650709 197.42414496 -82.64575686 193.38334108 -85.96337891 188.03710938 C-88.58073054 182.20575993 -88.18854513 176.41864572 -88.08837891 170.16210938 C-88.07935547 169.0921875 -88.07033203 168.02226562 -88.06103516 166.91992188 C-88.03757233 164.29208499 -88.00474349 161.66471531 -87.96337891 159.03710938 C-89.21126442 159.04710213 -89.21126442 159.04710213 -90.48435974 159.05729675 C-98.35466193 159.11760442 -106.22488563 159.16318322 -114.09536648 159.19254589 C-118.1409084 159.20814943 -122.18625812 159.22928951 -126.23168945 159.26342773 C-130.1415144 159.29621219 -134.05115538 159.31400227 -137.96110725 159.3217411 C-139.44692947 159.32725059 -140.93274252 159.33800865 -142.41848564 159.35429955 C-153.68917988 159.47287739 -162.79220277 158.99694149 -171.29931641 150.84570312 C-175.88948838 145.85685425 -176.30479152 141.44536545 -176.36181641 134.91601562 C-175.35328355 127.62887137 -171.14065686 121.99375076 -167.02587891 116.09960938 C-166.4503125 115.26623047 -165.87474609 114.43285156 -165.28173828 113.57421875 C-161.15425746 107.63842212 -156.86314603 101.84401011 -152.48291016 96.09350586 C-148.08098561 90.28068959 -143.97917229 84.28470212 -139.89135742 78.24853516 C-135.62962927 71.96989797 -131.23027027 65.80395052 -126.76831055 59.66650391 C-123.12432928 54.65239446 -119.52731725 49.60839332 -115.96337891 44.53710938 C-111.70892953 38.48915231 -107.41632922 32.47021027 -103.08837891 26.47460938 C-102.56501953 25.74886719 -102.04166016 25.023125 -101.50244141 24.27539062 C-99.99532735 22.19157476 -98.48178252 20.11271178 -96.96337891 18.03710938 C-96.43558838 17.31515381 -95.90779785 16.59319824 -95.36401367 15.84936523 C-94.84379639 15.14561768 -94.3235791 14.44187012 -93.78759766 13.71679688 C-93.32442139 13.0888623 -92.86124512 12.46092773 -92.3840332 11.81396484 C-87.67640238 5.92598802 -82.39669387 2.45748803 -74.96337891 1.03710938 C-66.54339227 0.1610414 -59.17286553 0.94368261 -52.25244141 6.02929688 C-47.49297858 10.07961338 -44.59197257 12.86981207 -42.96337891 19.03710938 C-33.75691121 14.78348822 -25.12426154 9.66931655 -16.44335938 4.44458008 C-15.52055176 3.89116943 -14.59774414 3.33775879 -13.64697266 2.76757812 C-12.40258423 2.01577271 -12.40258423 2.01577271 -11.13305664 1.2487793 C-7.15922003 -0.97043428 -4.42231188 -1.20873178 0 0 Z " fill="#FEFEFD" transform="translate(255.96337890625,268.962890625)"/>
<path d="M0 0 C0.79921875 0.23847656 1.5984375 0.47695313 2.421875 0.72265625 C19.35679796 6.37892052 30.66483079 19.48104316 38.6875 34.8125 C46.50011523 50.65623519 50.09907833 68.95723678 50.203125 86.57421875 C50.21018463 87.3719873 50.21724426 88.16975586 50.22451782 88.99169922 C50.44296792 120.94206236 49.62077689 155.05171121 26.48730469 179.796875 C17.99602241 188.31701956 7.69385661 194.14360588 -4 197 C-4.88300781 197.22300781 -5.76601563 197.44601563 -6.67578125 197.67578125 C-29.22110124 202.36342204 -50.30359438 198.28768427 -69.70703125 186.33203125 C-80.53468902 178.60773366 -88.49375983 165.34171748 -93 153 C-93.42796875 151.84757813 -93.8559375 150.69515625 -94.296875 149.5078125 C-104.61108274 120.22074219 -105.81939972 80.47741519 -96 51 C-95.75942871 50.2687793 -95.51885742 49.53755859 -95.27099609 48.78417969 C-88.65050746 29.36230357 -76.43506714 12.69336042 -58.3984375 2.5390625 C-52.18773223 -0.27360172 -45.6563392 -1.64394404 -39 -3 C-38.19046875 -3.19207031 -37.3809375 -3.38414063 -36.546875 -3.58203125 C-24.00390322 -5.64046374 -11.98001936 -3.73349918 0 0 Z " fill="#FEFEFD" transform="translate(378,46)"/>
<path d="M0 0 C10.57230029 8.71154955 18.01974591 17.99604635 20.45068359 31.79882812 C22.37040421 53.98867039 16.90167198 70.60642774 2.74267578 87.66967773 C-8.0155574 100.35330501 -19.75297782 112.0906254 -31.48681641 123.86132812 C-32.07303772 124.45031891 -32.65925903 125.03930969 -33.26324463 125.64614868 C-34.96886164 127.35764672 -36.6783291 129.06519984 -38.38916016 130.77148438 C-38.89087234 131.27516541 -39.39258453 131.77884644 -39.90950012 132.29779053 C-43.9594062 136.32220934 -48.22219808 140.07581418 -52.54931641 143.79882812 C-51.80953049 143.80247375 -51.06974457 143.80611938 -50.30754089 143.80987549 C-43.29109644 143.84794784 -36.27511275 143.90501546 -29.25901318 143.98273087 C-25.65304595 144.02202172 -22.04731618 144.05429906 -18.44116211 144.06982422 C-14.95248189 144.08511378 -11.46445534 144.11977131 -7.9760685 144.16713715 C-6.01614506 144.18891033 -4.05603651 144.19129123 -2.09599304 144.19317627 C5.53074619 144.31640187 12.70676315 144.93683847 19.45068359 148.79882812 C21.97562491 151.59894688 23.81035803 154.40958401 25.45068359 157.79882812 C25.83869141 158.59804687 26.22669922 159.39726562 26.62646484 160.22070312 C27.60307187 163.27549288 27.45775329 165.44014961 27.07568359 168.61132812 C26.96482422 169.58714844 26.85396484 170.56296875 26.73974609 171.56835938 C26.64435547 172.30441406 26.54896484 173.04046875 26.45068359 173.79882812 C25.46068359 174.12882813 24.47068359 174.45882812 23.45068359 174.79882812 C22.78336644 176.46523445 22.11676932 178.1319292 21.45068359 179.79882812 C16.35299417 184.96943741 11.00200821 186.48829133 3.90911865 186.56756592 C2.84751526 186.54913635 1.78591187 186.53070679 0.69213867 186.51171875 C-0.45045914 186.5158075 -1.59305695 186.51989624 -2.77027893 186.52410889 C-6.52411208 186.53009551 -10.27616265 186.4932652 -14.02978516 186.45507812 C-16.64813299 186.44895799 -19.26648735 186.44520952 -21.88484192 186.44372559 C-27.36136571 186.43636386 -32.83738461 186.40654581 -38.3137207 186.36132812 C-45.33153432 186.3034986 -52.34894306 186.28286853 -59.36696911 186.27396393 C-64.76903368 186.26684749 -70.17100829 186.24601138 -75.57302284 186.22221375 C-78.16097583 186.21082618 -80.74893771 186.2013029 -83.33690453 186.19367981 C-86.95108191 186.17992394 -90.56489465 186.15264712 -94.17895508 186.12109375 C-95.24663116 186.11885803 -96.31430725 186.11662231 -97.41433716 186.11431885 C-105.92533235 186.01595141 -111.45357633 184.65346689 -117.77587891 178.77929688 C-121.17842031 174.97954249 -122.496143 171.40023468 -122.60009766 166.31445312 C-121.60671598 151.74485522 -111.7265193 142.22332075 -101.54931641 132.79882812 C-100.38489782 131.7956838 -99.21773288 130.7957229 -98.04858398 129.7980957 C-92.66617256 125.09857381 -87.63669506 120.05045468 -82.58447266 115.00195312 C-81.5413644 113.96206861 -80.4981857 112.92225475 -79.4549408 111.88250732 C-77.27898141 109.71249885 -75.10506078 107.5404714 -72.93237305 105.3671875 C-70.17649145 102.6112045 -67.4137997 99.8621611 -64.64927006 97.11485672 C-62.49481091 94.97162933 -60.34502682 92.82375709 -58.19643974 90.67464447 C-57.18118757 89.66055581 -56.16435278 88.64804857 -55.14576912 87.63730621 C-45.68285743 78.24045576 -36.9088194 68.60059811 -30.54931641 56.79882812 C-29.93056641 55.66445312 -29.31181641 54.53007813 -28.67431641 53.36132812 C-26.99532384 48.04451833 -26.04126705 42.11653671 -28.42822266 36.86523438 C-31.29682768 33.0688297 -35.08510392 31.10770718 -39.54931641 29.79882812 C-42.99580536 29.33660231 -46.38750875 29.27434152 -49.86181641 29.29882812 C-50.79517822 29.30454834 -51.72854004 29.31026855 -52.69018555 29.31616211 C-60.57720147 29.5212259 -66.40796146 30.81229018 -72.22119141 36.40820312 C-73.765881 38.14398834 -75.15846744 39.93799449 -76.54931641 41.79882812 C-80.6711901 47.02821461 -83.87436537 51.01884118 -90.54931641 52.79882812 C-97.74953019 53.44855156 -104.92348616 53.52872353 -110.90478516 49.02539062 C-119.22909488 41.9053928 -119.22909488 41.9053928 -119.85009766 35.88085938 C-119.89400285 23.63131024 -117.30011064 15.94302528 -108.87353516 7.02539062 C-81.94745693 -18.45924872 -29.77434 -23.08379339 0 0 Z " fill="#FEFEFD" transform="translate(206.54931640625,56.201171875)"/>
<path d="M0 0 C6.56317342 4.71398733 10.87019758 9.05761964 13 17 C13.38633959 20.27952046 13.38109193 23.51341627 13.34057617 26.8125 C13.34101425 27.75976456 13.34145233 28.70702911 13.34190369 29.68299866 C13.33982713 32.78888137 13.31654961 35.89421253 13.29296875 39 C13.28736877 41.16332708 13.28310057 43.32665798 13.28010559 45.48999023 C13.26868853 51.16504546 13.23924832 56.83986787 13.20599365 62.51483154 C13.17522505 68.31324108 13.16158576 74.11168849 13.14648438 79.91015625 C13.11437565 91.27353941 13.0632173 102.63675029 13 114 C13.74258057 113.9688208 14.48516113 113.9376416 15.25024414 113.90551758 C16.23114014 113.88126709 17.21203613 113.8570166 18.22265625 113.83203125 C19.19211182 113.80085205 20.16156738 113.76967285 21.16040039 113.73754883 C27.08546921 114.28517577 30.67173042 118.50143945 34.4375 122.75 C37.97818478 127.84858609 37.41163186 132.94978833 37 139 C35.96888645 144.17448729 33.00627537 147.51904644 28.9609375 150.7109375 C23.73563629 154.14589646 19.22463972 155.15892697 13 155 C13.02356567 155.98226562 13.02356567 155.98226562 13.04760742 156.984375 C13.11047934 159.98949331 13.14915488 162.99447263 13.1875 166 C13.21263672 167.02996094 13.23777344 168.05992187 13.26367188 169.12109375 C13.33311715 176.38969922 12.97367518 182.42910135 8.1328125 188.2421875 C7.47023437 188.78101563 6.80765625 189.31984375 6.125 189.875 C5.46757812 190.42929687 4.81015625 190.98359375 4.1328125 191.5546875 C-2.41841953 195.99416708 -9.3363846 195.68564623 -17 195 C-23.13312818 193.38703558 -27.68237796 189.3462317 -31 184 C-33.61735164 178.16865055 -33.22516622 172.38153635 -33.125 166.125 C-33.11597656 165.05507813 -33.10695313 163.98515625 -33.09765625 162.8828125 C-33.07419342 160.25497561 -33.04136459 157.62760594 -33 155 C-34.24788551 155.00999275 -34.24788551 155.00999275 -35.52098083 155.02018738 C-43.39128303 155.08049505 -51.26150672 155.12607385 -59.13198757 155.15543652 C-63.17752949 155.17104005 -67.22287921 155.19218013 -71.26831055 155.22631836 C-75.17813549 155.25910281 -79.08777647 155.27689289 -82.99772835 155.28463173 C-84.48355057 155.29014121 -85.96936361 155.30089927 -87.45510674 155.31719017 C-98.72580097 155.43576802 -107.82882386 154.95983211 -116.3359375 146.80859375 C-120.92610947 141.81974487 -121.34141261 137.40825607 -121.3984375 130.87890625 C-120.38990465 123.591762 -116.17727795 117.95664139 -112.0625 112.0625 C-111.48693359 111.22912109 -110.91136719 110.39574219 -110.31835938 109.53710938 C-106.19087855 103.60131275 -101.89976712 97.80690074 -97.51953125 92.05639648 C-93.1176067 86.24358022 -89.01579338 80.24759274 -84.92797852 74.21142578 C-80.66625036 67.9327886 -76.26689136 61.76684115 -71.80493164 55.62939453 C-68.16095037 50.61528508 -64.56393834 45.57128395 -61 40.5 C-56.74555063 34.45204294 -52.45295031 28.43310089 -48.125 22.4375 C-47.60164063 21.71175781 -47.07828125 20.98601562 -46.5390625 20.23828125 C-45.03194844 18.15446539 -43.51840361 16.07560241 -42 14 C-41.47220947 13.27804443 -40.94441895 12.55608887 -40.40063477 11.81225586 C-39.88041748 11.1085083 -39.3602002 10.40476074 -38.82421875 9.6796875 C-38.36104248 9.05175293 -37.89786621 8.42381836 -37.4206543 7.77685547 C-28.50110364 -3.37909739 -12.81269215 -6.96869315 0 0 Z " fill="#FEFEFD" transform="translate(201,273)"/>
<path d="M0 0 C2.54278929 1.29531997 3.42658712 2.60731576 4.93920898 5.01416016 C5.70720825 6.22966553 5.70720825 6.22966553 6.49072266 7.46972656 C9.53683535 12.5287844 12.45200953 17.65361139 15.33691406 22.8059082 C17.78507214 27.15671705 20.25797954 31.44750565 23.00170898 35.61962891 C28.51320308 44.10026181 31.04306996 50.22693647 31.03295898 60.40869141 C31.03805796 65.14563861 31.95319561 69.45482069 33.03686523 74.03759766 C32.30330811 74.3938623 31.56975098 74.75012695 30.81396484 75.1171875 C23.55860726 78.68615476 16.55319515 82.54133485 9.59936523 86.66259766 C7.50702859 87.88674619 5.41457833 89.11070057 3.32202148 90.33447266 C-0.76906334 92.73646165 -4.84174495 95.16624521 -8.90454102 97.61572266 C-10.75724382 98.7149537 -12.61010118 99.81392431 -14.46313477 100.91259766 C-15.30416748 101.43031738 -16.1452002 101.94803711 -17.01171875 102.48144531 C-22.27645775 105.57772579 -25.83565302 106.88046087 -31.96313477 106.03759766 C-34.71313477 103.28759766 -34.71313477 103.28759766 -36.96313477 100.03759766 C-38.28313477 98.71759766 -39.60313477 97.39759766 -40.96313477 96.03759766 C-40.96313477 102.96759766 -40.96313477 109.89759766 -40.96313477 117.03759766 C-38.98313477 117.03759766 -37.00313477 117.03759766 -34.96313477 117.03759766 C-34.96313477 117.36759766 -34.96313477 117.69759766 -34.96313477 118.03759766 C-37.27313477 118.03759766 -39.58313477 118.03759766 -41.96313477 118.03759766 C-42.29313477 85.36759766 -42.62313477 52.69759766 -42.96313477 19.03759766 C-39.00313477 17.05759766 -35.04313477 15.07759766 -30.96313477 13.03759766 C-28.98663445 11.93581125 -27.02154864 10.81237283 -25.08422852 9.64306641 C-24.14385742 9.08039063 -23.20348633 8.51771484 -22.23461914 7.93798828 C-20.83179688 7.09010742 -20.83179688 7.09010742 -19.40063477 6.22509766 C-17.4842271 5.07015961 -15.56632663 3.91769387 -13.64672852 2.76806641 C-12.81713623 2.26686279 -11.98754395 1.76565918 -11.1328125 1.24926758 C-7.15903951 -0.96991047 -4.42235694 -1.20787726 0 0 Z " fill="#F6B692" transform="translate(255.963134765625,268.96240234375)"/>
<path d="M0 0 C0.68497559 -0.0103125 1.36995117 -0.020625 2.07568359 -0.03125 C8.07715439 0.0730982 12.00456566 1.82672138 16.5625 5.625 C32.17835725 24.11746253 29.27438837 59.1160869 27.625 81.4296875 C26.5881909 92.23963596 24.07192994 103.90496851 16.9375 112.4375 C9.51076047 118.3485784 2.14844886 117.99542033 -7.0625 117.4375 C-13.10887072 116.29923677 -16.69508077 112.31242668 -20.0625 107.4375 C-33.15187453 86.12304553 -32.11878682 51.71468033 -27.0390625 28.15625 C-24.32571787 17.82383363 -20.32573167 9.01422319 -12.1875 1.9375 C-8.345522 -0.00507315 -4.22152166 0.05359447 0 0 Z " fill="#F18F54" transform="translate(353.0625,84.5625)"/>
<path d="M0 0 C5.25638837 2.61178848 7.50076878 5.97347795 9.9375 11.125 C12.1935214 15.62356598 14.4446942 19.87088657 17.4375 23.9375 C20.88585126 28.66041193 23.69490469 33.62915333 26.50561523 38.74560547 C28.43944593 42.25632823 30.41576988 45.71699511 32.5390625 49.1171875 C33.1570874 50.11165894 33.1570874 50.11165894 33.78759766 51.1262207 C34.57165068 52.37840042 35.36502085 53.62481501 36.16943359 54.86401367 C38.68151085 58.89434819 39.78422475 62.2529444 40 67 C37.76058503 71.39269859 35.09251745 74.28854485 31 77 C28.31813792 77.48619005 26.0039241 77.74625083 23.31079102 77.83496094 C22.1729995 77.89366364 22.1729995 77.89366364 21.01222229 77.95355225 C18.50972979 78.07286903 16.00808705 78.15876616 13.50390625 78.234375 C12.21308797 78.27380596 12.21308797 78.27380596 10.89619255 78.31403351 C6.33511533 78.44423046 1.77440245 78.54203629 -2.7878418 78.62011719 C-6.54378039 78.69121826 -10.28758968 78.82997187 -14.03881836 79.03027344 C-44.27118503 80.60875049 -44.27118503 80.60875049 -52.05743408 74.66674805 C-56.86470609 69.02113019 -59.65704252 62.77015207 -62.01309204 55.7906189 C-63.27838594 52.21282522 -65.03943346 49.23723372 -67 46 C-67.71743672 42.95089393 -67.41640595 41.22714611 -67 38 C-64.36337684 34.0521171 -61.6315825 31.88874121 -57.51953125 29.58203125 C-56.44606445 28.97238525 -55.37259766 28.36273926 -54.26660156 27.73461914 C-53.12674805 27.10031982 -51.98689453 26.46602051 -50.8125 25.8125 C-49.63055 25.14492167 -48.44923861 24.47621146 -47.26855469 23.80639648 C-44.92472493 22.47730814 -42.57865898 21.15231293 -40.23095703 19.83007812 C-36.04089187 17.45674214 -31.89168844 15.01892598 -27.75 12.5625 C-26.42596035 11.78485123 -25.10174694 11.00749822 -23.77734375 10.23046875 C-21.19422511 8.71181109 -18.62738031 7.16895369 -16.06640625 5.61328125 C-14.81527535 4.86690048 -13.56398108 4.12079347 -12.3125 3.375 C-11.23613281 2.72273438 -10.15976563 2.07046875 -9.05078125 1.3984375 C-5.60304683 -0.18195805 -3.74275866 -0.57882768 0 0 Z " fill="#F6681B" transform="translate(144,435)"/>
<path d="M0 0 C4.03792185 2.66935268 6.1490739 5.46402461 8.4453125 9.68359375 C9.34830078 11.32231445 9.34830078 11.32231445 10.26953125 12.99414062 C10.88183594 14.13044922 11.49414062 15.26675781 12.125 16.4375 C13.35634438 18.68643146 14.58810027 20.93513767 15.8203125 23.18359375 C16.35930176 24.17931396 16.89829102 25.17503418 17.45361328 26.20092773 C18.48820214 28.07360871 19.57095672 29.92043999 20.69873047 31.73852539 C22 34 22 34 22 36 C20.49609375 37.48046875 20.49609375 37.48046875 18.4375 39.1875 C9.91132863 46.478431 1.2081205 54.17767799 0 66 C-0.08043142 72.47472938 0.82094004 76.86572634 5 82 C6.33422552 83.66595252 7.66768879 85.33251615 9 87 C7.29457031 87.94359375 7.29457031 87.94359375 5.5546875 88.90625 C4.81395996 89.31697754 4.07323242 89.72770508 3.31005859 90.15087891 C1.67606267 91.05617883 0.04095502 91.95947487 -1.59521484 92.86083984 C-5.44936973 94.9916595 -9.27729995 97.14175224 -13.03125 99.4453125 C-13.64210449 99.81462891 -14.25295898 100.18394531 -14.88232422 100.56445312 C-16.52549966 101.56444669 -18.15767615 102.58244954 -19.7890625 103.6015625 C-24.06447693 105.46360431 -26.35512186 105.62117133 -31 105 C-35.05459804 101.90010164 -37.38919059 98.06251833 -39.9375 93.6875 C-40.30810547 93.05577881 -40.67871094 92.42405762 -41.06054688 91.77319336 C-41.90169454 90.33679533 -42.73919149 88.89825549 -43.57373047 87.45800781 C-45.16605467 84.71382431 -46.77195287 81.97782897 -48.37890625 79.2421875 C-51.38395849 74.11995792 -54.37216446 68.98821501 -57.34912109 63.84960938 C-58.39449833 62.04516644 -59.44149679 60.24166093 -60.49072266 58.43945312 C-61.77224769 56.23473769 -63.04423626 54.02486306 -64.3125 51.8125 C-64.67923828 51.1841626 -65.04597656 50.5558252 -65.42382812 49.90844727 C-67.28292965 46.6355407 -68.63425039 43.76852727 -69 40 C-67.12325469 33.3592089 -61.60058577 30.382532 -56 27 C-53.32981747 25.5191315 -50.64716512 24.06281097 -47.96142578 22.61035156 C-43.17123114 20.00555982 -38.43180752 17.31216612 -33.6875 14.625 C-32.68710693 14.06208252 -31.68671387 13.49916504 -30.65600586 12.91918945 C-26.29515126 10.46072818 -21.94835103 7.99482031 -17.6796875 5.37890625 C-16.74443237 4.81405518 -16.74443237 4.81405518 -15.7902832 4.23779297 C-14.1971588 3.26935702 -12.61557442 2.28200463 -11.03515625 1.29296875 C-6.90479514 -0.46655445 -4.48461577 -0.51214579 0 0 Z " fill="#F47430" transform="translate(85,153)"/>
<path d="M0 0 C3.6578218 2.03993908 5.66946174 3.50419262 8 7 C8.25049787 9.61197203 8.38677045 12.1242387 8.43334961 14.7409668 C8.45452347 15.52834732 8.47569733 16.31572784 8.49751282 17.12696838 C8.70253937 25.35654794 8.78826046 33.58942882 8.86499023 41.82104492 C8.90506901 45.72462022 8.98161042 49.62485033 9.09057617 53.52709961 C9.22209228 58.24481727 9.2893207 62.95941346 9.3112812 67.67887306 C9.33020463 69.47289093 9.37137832 71.26682255 9.43562126 73.05978966 C9.82240364 84.45613312 9.82240364 84.45613312 8 89 C4.06482868 92.94512525 0.13573348 94.81937375 -5 97 C-6.61113443 97.95885942 -8.20887874 98.94157764 -9.77734375 99.96875 C-11.16346659 100.8134786 -12.55016504 101.65726358 -13.9375 102.5 C-14.63939453 102.94085938 -15.34128906 103.38171875 -16.06445312 103.8359375 C-20.1444432 106.29385481 -23.10830438 107.90513007 -28 107 C-34.64784091 104.04442957 -37.21376388 98.21631023 -40.625 92.0625 C-41.22965088 90.99725098 -41.83430176 89.93200195 -42.45727539 88.83447266 C-43.70532434 86.63410703 -44.94789646 84.43062622 -46.18505859 82.22412109 C-47.87871165 79.21546059 -49.59803554 76.22382823 -51.33203125 73.23828125 C-53.82522091 68.94381217 -56.28154513 64.63063314 -58.70751953 60.29785156 C-59.538275 58.8208832 -60.37714977 57.34843659 -61.22607422 55.88183594 C-62.30214436 54.01787137 -63.34308015 52.13866246 -64.375 50.25 C-64.93960937 49.24453125 -65.50421875 48.2390625 -66.0859375 47.203125 C-67.3859631 42.64747973 -67.25718619 39.22330665 -65 35 C-61.96733255 32.35341703 -58.59108943 30.65815532 -55 28.875 C-53.0671648 27.84851981 -51.13614395 26.81861533 -49.20703125 25.78515625 C-48.29131348 25.30320801 -47.3755957 24.82125977 -46.43212891 24.32470703 C-43.6975271 22.83525216 -41.18464001 21.17133825 -38.6875 19.3125 C-33.4105079 15.4326364 -27.71393167 12.37231654 -21.984375 9.22265625 C-19.45555369 7.82888946 -16.97036679 6.39147284 -14.515625 4.87109375 C-13.47921875 4.23300781 -12.4428125 3.59492188 -11.375 2.9375 C-10.02535156 2.08478516 -10.02535156 2.08478516 -8.6484375 1.21484375 C-5.50684541 -0.22621103 -3.42174696 -0.35429533 0 0 Z " fill="#F6681B" transform="translate(504,330)"/>
<path d="M0 0 C26.73 0 53.46 0 81 0 C82.98 3.96 84.96 7.92 87 12 C89.1403193 15.67751395 91.3197014 19.31322413 93.5625 22.92773438 C96.48603059 27.75968076 99.47910444 32.72611965 98.625 38.5625 C94.03800776 45.44298836 85.22774612 49.32835136 78.1875 53.25 C76.32634396 54.29602327 74.46564619 55.34286244 72.60546875 56.390625 C71.79231201 56.84469727 70.97915527 57.29876953 70.14135742 57.76660156 C68.38703164 58.77707401 66.6845091 59.87699394 65 61 C61.13395334 60.72210235 58.57015492 58.40264159 55.5625 56.125 C45.15462267 48.2792844 31.69023322 42.50039614 18.36328125 43.1875 C8.65097149 43.49674767 8.65097149 43.49674767 5.546875 40.68261719 C2.75121222 37.10593717 0.80362452 33.1130738 -1.07421875 28.99804688 C-1.9330544 27.14448387 -2.90018681 25.34215596 -3.875 23.546875 C-6.63233404 18.46623172 -8.53845794 14.89892727 -8 9 C-5.04485488 3.40633245 -5.04485488 3.40633245 -1.75 2.125 C-1.1725 2.08375 -0.595 2.0425 0 2 C0 1.34 0 0.68 0 0 Z " fill="#F46418" transform="translate(340,0)"/>
<path d="M0 0 C0.33 0 0.66 0 1 0 C1.01458252 0.79881592 1.02916504 1.59763184 1.04418945 2.4206543 C1.65581215 32.55009585 2.51606462 65.11674812 22.99609375 89.34375 C23.32738281 89.8903125 23.65867187 90.436875 24 91 C23 94 23 94 20.875 95.25390625 C19.92625 95.68574219 18.9775 96.11757812 18 96.5625 C11.77067901 99.52422507 5.9149852 102.9407837 0.05273438 106.57250977 C-4.77113126 109.4953586 -9.73488248 112.47782208 -15.5625 111.625 C-22.83784059 106.77477294 -26.93352362 97.20880503 -31.125 89.8125 C-32.11240458 88.08552301 -33.09980977 86.35854636 -34.08728027 84.63160706 C-35.0833257 82.88738614 -36.0767978 81.14172661 -37.06933594 79.39550781 C-39.43544265 75.23417598 -41.81087028 71.07821477 -44.18701172 66.92260742 C-45.20292154 65.14484458 -46.217637 63.36639849 -47.23095703 61.5871582 C-47.68583496 60.78882568 -48.14071289 59.99049316 -48.609375 59.16796875 C-49.02517822 58.43433105 -49.44098145 57.70069336 -49.86938477 56.94482422 C-50.80481934 55.3357394 -51.80642315 53.76532644 -52.82421875 52.20703125 C-54.16543205 49.68947141 -54.34528968 48.31797439 -54.0625 45.5 C-54.01222656 44.7678125 -53.96195313 44.035625 -53.91015625 43.28125 C-51.0733783 36.1710426 -41.05410977 32.40237591 -34.8125 28.875 C-33.07008638 27.88173119 -31.32767501 26.88845819 -29.58566284 25.89448547 C-28.41726685 25.22824377 -27.24842327 24.5627864 -26.07913208 23.89811707 C-22.41662636 21.81525841 -18.77082507 19.70620267 -15.13671875 17.57421875 C-14.26233154 17.06197754 -13.38794434 16.54973633 -12.48706055 16.02197266 C-10.86053608 15.06748525 -9.23562681 14.1102387 -7.61254883 13.14990234 C-2.22213777 10 -2.22213777 10 0 10 C0 6.7 0 3.4 0 0 Z " fill="#F5B796" transform="translate(276,132)"/>
<path d="M0 0 C4.1566264 2.00899532 6.00957163 4.06579997 8.2421875 8.06640625 C9.11870972 9.6129187 9.11870972 9.6129187 10.01293945 11.19067383 C10.62741943 12.30337646 11.24189941 13.4160791 11.875 14.5625 C12.86010619 16.31077729 13.8452348 18.05904238 14.8316803 19.80656433 C15.86012904 21.63150748 16.88340409 23.45929442 17.90673828 25.28710938 C19.98528211 28.98776211 22.10940404 32.6608086 24.24609375 36.328125 C24.58920593 36.91782578 24.93231812 37.50752655 25.28582764 38.11509705 C26.93894458 40.95564444 28.59420187 43.79492599 30.25146484 46.63305664 C30.84523926 47.65778076 31.43901367 48.68250488 32.05078125 49.73828125 C32.83449097 51.08466675 32.83449097 51.08466675 33.6340332 52.45825195 C34.9591405 54.92396993 35.98255665 57.39568383 37 60 C24.5697048 60.16215278 12.13966096 60.28655068 -0.29147625 60.3626852 C-6.0637566 60.39922542 -11.83531369 60.44879148 -17.60717773 60.52807617 C-23.17690453 60.60410587 -28.74593549 60.64598434 -34.31614113 60.6641407 C-36.44171926 60.67708014 -38.56725906 60.70234852 -40.69254112 60.7401104 C-43.66915686 60.79089772 -46.64289412 60.79792511 -49.61987305 60.79467773 C-50.49956757 60.81984467 -51.37926208 60.8450116 -52.28561401 60.87094116 C-58.13983595 60.80178954 -58.13983595 60.80178954 -60.63971901 58.47155952 C-61.92662925 56.69806152 -62.99147669 54.94287785 -64 53 C-64.46148437 52.21753906 -64.92296875 51.43507813 -65.3984375 50.62890625 C-67.93863598 45.25384628 -68.66722438 41.78624931 -67 36 C-63.84088642 33.12836059 -60.43698146 30.96526498 -56.73828125 28.85546875 C-55.7136377 28.26789795 -54.68899414 27.68032715 -53.63330078 27.07495117 C-52.53743652 26.45209229 -51.44157227 25.8292334 -50.3125 25.1875 C-48.5788906 24.19537117 -46.84528558 23.2032346 -45.11193848 22.21064758 C-43.30364268 21.17572391 -41.49434913 20.14255843 -39.68505859 19.109375 C-35.99794102 17.00154158 -32.32016346 14.87778364 -28.64453125 12.75 C-28.05197037 12.40713455 -27.45940948 12.0642691 -26.84889221 11.71101379 C-23.99169088 10.05766909 -21.13492316 8.40357936 -18.27856445 6.7487793 C-17.25077881 6.15492432 -16.22299316 5.56106934 -15.1640625 4.94921875 C-14.26123535 4.42674561 -13.3584082 3.90427246 -12.42822266 3.3659668 C-7.96585992 0.85571951 -5.25442588 -0.53616591 0 0 Z " fill="#F46417" transform="translate(472,452)"/>
<path d="M0 0 C32.01 0 64.02 0 97 0 C105 14 105 14 105 22 C102.60226339 26.01747863 99.80642076 27.99863262 95.73828125 30.19921875 C94.71017334 30.76358643 93.68206543 31.3279541 92.62280273 31.90942383 C91.53040283 32.49618896 90.43800293 33.0829541 89.3125 33.6875 C87.03826052 34.93343308 84.7648246 36.18083401 82.4921875 37.4296875 C81.38069336 38.03780273 80.26919922 38.64591797 79.12402344 39.27246094 C75.01594116 41.54417008 70.97014213 43.91016718 66.9375 46.3125 C65.60699977 47.09804413 64.27627418 47.88320671 62.9453125 48.66796875 C60.90443384 49.87254751 58.86565009 51.08024095 56.83105469 52.29541016 C54.66537524 53.58459605 52.49019684 54.85624615 50.3125 56.125 C49.66466553 56.51598877 49.01683105 56.90697754 48.34936523 57.30981445 C44.40438694 59.58427065 41.53577139 60.8622216 37 60 C30.64234821 56.16031293 27.91119408 50.09307846 24.5 43.6875 C23.27683135 41.4441707 22.05150948 39.20201433 20.82421875 36.9609375 C20.19821777 35.81334961 19.5722168 34.66576172 18.92724609 33.48339844 C15.25540431 26.8467328 11.3853962 20.32557039 7.53125 13.79370117 C6.98082031 12.8576001 6.43039063 11.92149902 5.86328125 10.95703125 C5.38157471 10.14210205 4.89986816 9.32717285 4.40356445 8.48754883 C2.83729615 5.71163862 1.42540337 2.85080675 0 0 Z " fill="#F56718" transform="translate(6,0)"/>
<path d="M0 0 C6.34821263 3.78419428 9.31597954 10.01979753 12.875 16.3125 C13.76445312 17.85260742 13.76445312 17.85260742 14.671875 19.42382812 C16.1250544 21.94345369 17.56728499 24.46870026 19 27 C16.11486659 28.92342227 14.04555727 29.50583366 10.70751953 30.19018555 C-6.73537812 33.8321317 -20.15051941 44.67684846 -29.890625 59.390625 C-35.10190393 67.98684473 -38.75478282 77.22733971 -41 87 C-44.9142274 85.69525753 -45.28810153 84.25759849 -47.29296875 80.70703125 C-47.91993652 79.6077832 -48.5469043 78.50853516 -49.19287109 77.37597656 C-49.85811912 76.18835919 -50.5229889 75.00052986 -51.1875 73.8125 C-51.86465331 72.61513893 -52.54255113 71.4181986 -53.22119141 70.22167969 C-54.22744835 68.44626919 -55.23258079 66.67028289 -56.23364258 64.89193726 C-58.0320129 61.69733535 -59.85584484 58.52153355 -61.73046875 55.37109375 C-62.28988159 54.42496216 -62.28988159 54.42496216 -62.8605957 53.4597168 C-63.79648279 51.88233599 -64.73783734 50.30820254 -65.6796875 48.734375 C-67.77020089 44.40490939 -68.51076337 41.53811631 -66.97265625 36.90625 C-64.62788304 33.45177224 -61.96520713 31.57764201 -58.4375 29.5 C-57.81125732 29.11545654 -57.18501465 28.73091309 -56.53979492 28.3347168 C-54.70096483 27.20966636 -52.85133875 26.10429827 -51 25 C-50.08992188 24.43925781 -49.17984375 23.87851562 -48.2421875 23.30078125 C-44.20329849 20.8267994 -40.10432282 18.49787818 -35.93359375 16.25390625 C-31.958655 14.09528398 -28.03639135 11.86864893 -24.140625 9.5703125 C-22.68462891 8.71953125 -22.68462891 8.71953125 -21.19921875 7.8515625 C-19.21118892 6.68770927 -17.2294996 5.51296586 -15.25390625 4.328125 C-5.64775679 -1.23805506 -5.64775679 -1.23805506 0 0 Z " fill="#F6752E" transform="translate(323,15)"/>
<path d="M0 0 C8 0 8 0 10.6875 1.48046875 C13.74224821 4.80869949 15.82454166 8.36940567 18 12.3125 C18.46349854 13.13339111 18.92699707 13.95428223 19.40454102 14.80004883 C20.40819069 16.57949527 21.40745544 18.36142044 22.40283203 20.14550781 C24.0751841 23.1343706 25.76769726 26.11108958 27.46484375 29.0859375 C28.62277386 31.11957647 29.7803326 33.15342694 30.9375 35.1875 C31.48083984 36.14245361 32.02417969 37.09740723 32.58398438 38.08129883 C34.8983739 42.17507345 37.16609176 46.26594253 39.23828125 50.48828125 C40.88736945 54.03479768 40.88736945 54.03479768 43.25 57 C45.63269966 61.08462798 45.45370287 63.311737 45 68 C44 70.5 44 70.5 43 72 C42.34 72 41.68 72 41 72 C41 72.66 41 73.32 41 74 C40.04222656 74.53367187 39.08445313 75.06734375 38.09765625 75.6171875 C30.64932143 79.77982577 23.23432941 83.99418224 15.875 88.3125 C15.17769775 88.72032715 14.48039551 89.1281543 13.76196289 89.54833984 C9.7497692 91.91210535 5.86445031 94.40267657 2 97 C1.01 97.495 1.01 97.495 0 98 C0 65.66 0 33.32 0 0 Z " fill="#F66A1E" transform="translate(0,197)"/>
<path d="M0 0 C3.2331694 2.65838373 5.52470993 4.72238937 6 9 C6.66 9 7.32 9 8 9 C8.495 11.475 8.495 11.475 9 14 C9.66 14 10.32 14 11 14 C12.16976452 16.01908824 13.33573538 18.04024186 14.5 20.0625 C15.47453125 21.75052734 15.47453125 21.75052734 16.46875 23.47265625 C20.07774575 29.92763476 23.51982269 36.47466754 27 43 C-4.68 43 -36.36 43 -69 43 C-69 36 -69 36 -67.64453125 33.421875 C-63.75752803 29.86213793 -59.34870112 27.66184581 -54.6875 25.25 C-52.69523904 24.19399728 -50.70435666 23.13538973 -48.71484375 22.07421875 C-47.74015137 21.55520996 -46.76545898 21.03620117 -45.76123047 20.50146484 C-42.0198109 18.46700593 -38.37804531 16.291211 -34.75 14.0625 C-30.08926436 11.21524374 -25.40736424 8.54711821 -20.47265625 6.19921875 C-18.60200471 5.29196753 -16.75993571 4.32546821 -14.93359375 3.33203125 C-13.88300781 2.76871094 -12.83242187 2.20539063 -11.75 1.625 C-10.79609375 1.10164063 -9.8421875 0.57828125 -8.859375 0.0390625 C-5.40458134 -1.21636798 -3.50662209 -1.00675558 0 0 Z " fill="#F4671D" transform="translate(268,469)"/>
<path d="M0 0 C32.01 0 64.02 0 97 0 C93.70802223 9.87593331 92.07206003 11.43677863 83.7265625 16.09375 C82.7365625 16.64933594 81.7465625 17.20492188 80.7265625 17.77734375 C79.70304687 18.34582031 78.67953125 18.91429688 77.625 19.5 C75.59631332 20.63534369 73.56766653 21.77075865 71.5390625 22.90625 C70.10481934 23.70289063 70.10481934 23.70289063 68.64160156 24.515625 C66.39245439 25.7794711 64.17587707 27.08403699 61.9609375 28.40625 C59 30 59 30 56 30 C56 30.66 56 31.32 56 32 C54.60587891 32.68835937 54.60587891 32.68835937 53.18359375 33.390625 C51.93482862 34.01028123 50.68613533 34.63008226 49.4375 35.25 C48.79216309 35.568479 48.14682617 35.88695801 47.48193359 36.21508789 C44.25707021 37.81936569 41.14603137 39.47772087 38.125 41.4375 C33.86671234 43.56664383 31.73517795 43.67645399 27 43 C22.65100854 40.24006311 20.45215069 37.58103119 18.0390625 32.98046875 C16.89828737 30.80613421 15.65034317 28.72326014 14.375 26.625 C13.24957457 24.75025532 12.12465179 22.87520888 11 21 C10.59346191 20.32453125 10.18692383 19.6490625 9.76806641 18.953125 C8.40261584 16.68018873 7.04459681 14.40293217 5.6875 12.125 C5.2426123 11.38717285 4.79772461 10.6493457 4.33935547 9.88916016 C3.71311279 8.83414307 3.71311279 8.83414307 3.07421875 7.7578125 C2.69869873 7.1302002 2.32317871 6.50258789 1.9362793 5.85595703 C1 4 1 4 0 0 Z " fill="#F66A1E" transform="translate(221,0)"/>
<path d="M0 0 C0 31.35 0 62.7 0 95 C-6.67963956 93.88672674 -7.42427436 93.1966817 -11.34765625 88.36328125 C-13.51000151 85.27056522 -15.11852414 82.06308155 -16.71875 78.65234375 C-18.02491176 75.94842962 -19.47010249 73.39607692 -21 70.8125 C-25.22928913 63.66098681 -29.29967752 56.42161602 -33.38085938 49.18481445 C-33.91904297 48.23050537 -34.45722656 47.27619629 -35.01171875 46.29296875 C-35.52468506 45.37870117 -36.03765137 44.46443359 -36.56616211 43.52246094 C-37.44675302 41.97329266 -38.34268922 40.43258026 -39.26391602 38.90722656 C-42.16962393 34.08661375 -43.14952462 30.5281684 -42 25 C-38.88255747 20.37758522 -34.09557613 18.2755587 -29.2578125 15.7578125 C-24.7395548 13.31990367 -20.38822056 10.62276821 -16.03955078 7.89550781 C-11.32596231 5 -11.32596231 5 -8 5 C-8 4.34 -8 3.68 -8 3 C-2.25 0 -2.25 0 0 0 Z " fill="#F4711D" transform="translate(512,220)"/>
<path d="M0 0 C0.88187988 0.00572021 1.76375977 0.01144043 2.67236328 0.01733398 C10.51535623 0.23273706 16.17820845 1.76969913 21.9765625 7.25 C27.31807887 13.12313648 28.60307184 17.6566002 28.4296875 25.59375 C27.82042113 31.4052138 24.63033336 34.24542846 20.3125 37.75 C13.36159629 43.08141481 5.57868643 42.86469775 -2.8125 42.875 C-3.85857422 42.89949219 -4.90464844 42.92398438 -5.98242188 42.94921875 C-13.63574583 42.97808107 -19.12303708 41.81055551 -24.93359375 36.68359375 C-25.61615234 35.81927734 -25.61615234 35.81927734 -26.3125 34.9375 C-26.78558594 34.35871094 -27.25867188 33.77992188 -27.74609375 33.18359375 C-30.86362362 28.53426719 -30.39397802 22.85525141 -29.875 17.5 C-28.06296008 11.49833912 -22.98161849 6.87103574 -17.875 3.5 C-12.00814477 0.5640472 -6.49780944 -0.04882318 0 0 Z " fill="#F3864E" transform="translate(356.875,385.5)"/>
<path d="M0 0 C3.68447426 2.37197913 6.33520723 4.8980106 8 9 C8.82907218 14.13152042 8.56620679 18.76472611 6.0625 23.375 C2.8056396 27.8072012 -0.63830647 29.85311368 -6 31 C-14.79595169 31.99812218 -24.53136443 32.42219444 -32 27 C-36.01585579 22.88374781 -37.1764432 19.4141415 -37.4375 13.75 C-37.35866822 8.77702877 -36.603232 5.93326177 -33.0234375 2.4375 C-23.32896565 -4.44969236 -10.60676969 -5.20020615 0 0 Z " fill="#F3A27B" transform="translate(371,313)"/>
<path d="M0 0 C1 1 1 1 1.0625 3.5625 C1.041875 4.366875 1.02125 5.17125 1 6 C3.475 6.99 3.475 6.99 6 8 C5.38918919 14.47459459 5.38918919 14.47459459 3.75 16.6875 C1.54915621 18.33813284 0.03766774 18.49002408 -2.6875 18.6875 C-3.89986328 18.78611328 -3.89986328 18.78611328 -5.13671875 18.88671875 C-6.05904297 18.94279297 -6.05904297 18.94279297 -7 19 C-7.33 20.32 -7.66 21.64 -8 23 C-10.49064888 23.68707555 -12.37886292 24 -15 24 C-15.99 24.495 -15.99 24.495 -17 25 C-19 26 -19 26 -22 26 C-22.103125 26.763125 -22.20625 27.52625 -22.3125 28.3125 C-23.06587538 31.25751284 -23.55293098 32.25209356 -26 34 C-28.375 34.875 -28.375 34.875 -31 35 C-33.625 33.625 -33.625 33.625 -36 32 C-37.485 31.505 -37.485 31.505 -39 31 C-39.99 33.475 -39.99 33.475 -41 36 C-39.02 35.34 -37.04 34.68 -35 34 C-34.67 35.32 -34.34 36.64 -34 38 C-35.40751221 38.86916887 -36.8264521 39.71985149 -38.25 40.5625 C-39.03890625 41.03816406 -39.8278125 41.51382813 -40.640625 42.00390625 C-43.30844625 43.13022151 -44.34501768 43.0169313 -47 42 C-46.855625 41.32453125 -46.71125 40.6490625 -46.5625 39.953125 C-46.376875 39.06109375 -46.19125 38.1690625 -46 37.25 C-45.7215625 35.92742187 -45.7215625 35.92742187 -45.4375 34.578125 C-44.88846325 31.77856035 -44.88846325 31.77856035 -45 28 C-45.99 28 -46.98 28 -48 28 C-48.99 30.475 -48.99 30.475 -50 33 C-50.99 33 -51.98 33 -53 33 C-53.375 30.25 -53.375 30.25 -53 27 C-50.07590542 24.41591642 -48.08772024 23.1208578 -44.1875 22.6875 C-42 23 -42 23 -41 24 C-40.7525 23.2575 -40.505 22.515 -40.25 21.75 C-38.85086087 18.67189392 -37.70634961 17.02976221 -35 15 C-32.0625 14.4375 -32.0625 14.4375 -29 15 C-26.125 17.5 -26.125 17.5 -24 20 C-23.89042969 19.15695312 -23.78085938 18.31390625 -23.66796875 17.4453125 C-23.43013672 15.80175781 -23.43013672 15.80175781 -23.1875 14.125 C-23.03667969 13.03445313 -22.88585937 11.94390625 -22.73046875 10.8203125 C-22 8 -22 8 -19 6 C-18.01 6 -17.02 6 -16 6 C-14.68359375 7.71484375 -14.68359375 7.71484375 -13.4375 9.9375 C-11.79661289 13.06087402 -11.79661289 13.06087402 -9 15 C-9.433125 13.9171875 -9.433125 13.9171875 -9.875 12.8125 C-10.91666667 10.20833333 -11.95833333 7.60416667 -13 5 C-8.57359316 -0.7543289 -7.23071072 -1.31467468 0 0 Z " fill="#F49867" transform="translate(139,262)"/>
<path d="M0 0 C1.875 2.375 1.875 2.375 3 5 C2.67 5.66 2.34 6.32 2 7 C2.804375 7.268125 3.60875 7.53625 4.4375 7.8125 C5.283125 8.204375 6.12875 8.59625 7 9 C8 12 8 12 6.8125 14.5 C4.98086217 17.02639701 3.73556974 18.51497643 1 20 C-0.010625 19.95875 -1.02125 19.9175 -2.0625 19.875 C-3.031875 19.91625 -4.00125 19.9575 -5 20 C-6.71711243 22.44496043 -6.71711243 22.44496043 -8 25 C-8.99 25 -9.98 25 -11 25 C-11 24.34 -11 23.68 -11 23 C-12.6396875 23.99 -12.6396875 23.99 -14.3125 25 C-16.93707538 26.58464929 -17.8256378 27 -21 27 C-21.0825 27.928125 -21.165 28.85625 -21.25 29.8125 C-22 33 -22 33 -24.0625 34.875 C-24.701875 35.24625 -25.34125 35.6175 -26 36 C-28.43430815 29.42736799 -29.90109517 22.91663627 -31 16 C-27.32579134 16.30618405 -26.21864487 16.75771784 -23.6875 19.5625 C-22.8521875 20.7690625 -22.8521875 20.7690625 -22 22 C-21.94392578 20.62714844 -21.94392578 20.62714844 -21.88671875 19.2265625 C-21.82097656 18.03804687 -21.75523437 16.84953125 -21.6875 15.625 C-21.62949219 14.44164063 -21.57148438 13.25828125 -21.51171875 12.0390625 C-21.34285156 11.03617188 -21.17398437 10.03328125 -21 9 C-18 7 -18 7 -16.0625 6.9375 C-12.72056766 8.65910151 -11.75272913 11.72823895 -10 15 C-9.34 15.33 -8.68 15.66 -8 16 C-8 14.68 -8 13.36 -8 12 C-8.99 11.34 -9.98 10.68 -11 10 C-10.8125 6.6875 -10.8125 6.6875 -10 3 C-6.88546179 0.31803654 -4.08531828 -0.86006701 0 0 Z " fill="#F4732F" transform="translate(453,79)"/>
<path d="M0 0 C0.33 0 0.66 0 1 0 C1 12.21 1 24.42 1 37 C-7.58 37 -16.16 37 -25 37 C-23.53713994 34.07427987 -22.14107291 31.61114637 -20.3125 28.9453125 C-19.78301758 28.1716333 -19.25353516 27.3979541 -18.70800781 26.60083008 C-18.14436523 25.78380615 -17.58072266 24.96678223 -17 24.125 C-16.4234668 23.28670654 -15.84693359 22.44841309 -15.25292969 21.5847168 C-11.61424074 16.30701045 -7.95526643 11.04370763 -4.25 5.8125 C-3.83234375 5.21904785 -3.4146875 4.6255957 -2.984375 4.01416016 C-2.01560606 2.65714724 -1.01177773 1.32525588 0 0 Z " fill="#F69262" transform="translate(167,349)"/>
<path d="M0 0 C0.99 0.66 1.98 1.32 3 2 C2.67 3.32 2.34 4.64 2 6 C2.94875 6.5775 3.8975 7.155 4.875 7.75 C9.19214586 10.85834502 9.19214586 10.85834502 10 14 C9.9188061 18.4656646 9.47785505 20.43637609 6.5625 23.875 C3.61659936 26.31794199 2.59911491 26.91776854 -1.1875 27.4375 C-6.30924105 26.84975922 -8.64406052 24.78085171 -12 21 C-14.65004724 17.06767183 -15.5914011 13.64555414 -15.4296875 8.96484375 C-14.6460249 5.3813684 -12.59116889 3.52947439 -10 1 C-6.87293041 -0.5635348 -3.42017557 -0.39958487 0 0 Z " fill="#F6762F" transform="translate(48,104)"/>
<path d="M0 0 C36.96 0 73.92 0 112 0 C112 0.33 112 0.66 112 1 C110.56666979 1.39063507 109.12807321 1.76198474 107.6875 2.125 C106.48673828 2.43824219 106.48673828 2.43824219 105.26171875 2.7578125 C103 3 103 3 100 1 C100.495 2.98 100.495 2.98 101 5 C99.1875 6.5625 99.1875 6.5625 97 8 C96.01 7.67 95.02 7.34 94 7 C93.4121875 5.7625 93.4121875 5.7625 92.8125 4.5 C91.29562704 1.86280231 91.29562704 1.86280231 89.03125 1.44921875 C87.02914516 1.21305497 85.01355177 1.09902714 83 1 C83.495 1.515625 83.99 2.03125 84.5 2.5625 C86.60248778 5.97904264 86.54531303 8.04648052 86 12 C84.20976215 14.97046873 82.14995172 17.42502414 79 19 C71.73260073 19.58608059 71.73260073 19.58608059 68.5 17 C68.005 16.34 67.51 15.68 67 15 C68.90401138 13.09598862 70.33425686 12.06479561 73.046875 11.80078125 C75.03233273 11.8113422 77.0169914 11.90084957 79 12 C78.505 9.525 78.505 9.525 78 7 C75.09540975 7.40341531 73.30115 7.77185606 70.9375 9.5625 C69 11 69 11 65 11 C63.68 8.03 62.36 5.06 61 2 C30.805 1.505 30.805 1.505 0 1 C0 0.67 0 0.34 0 0 Z " fill="#F5B290" transform="translate(103,242)"/>
<path d="M0 0 C1 1 1 1 1.0625 3.5625 C1.041875 4.366875 1.02125 5.17125 1 6 C2.65 6.66 4.3 7.32 6 8 C5.38918919 14.47459459 5.38918919 14.47459459 3.75 16.6875 C1.54915621 18.33813284 0.03766774 18.49002408 -2.6875 18.6875 C-3.89986328 18.78611328 -3.89986328 18.78611328 -5.13671875 18.88671875 C-6.05904297 18.94279297 -6.05904297 18.94279297 -7 19 C-7.33 20.32 -7.66 21.64 -8 23 C-10.49064888 23.68707555 -12.37886292 24 -15 24 C-16.03125 24.185625 -17.0625 24.37125 -18.125 24.5625 C-19.548125 24.7790625 -19.548125 24.7790625 -21 25 C-22.69669132 23.30330868 -22.21209414 21.19357491 -22.25 18.875 C-22.22348915 13.79154536 -21.3774647 10.4577463 -19 6 C-18.01 6 -17.02 6 -16 6 C-14.68359375 7.71484375 -14.68359375 7.71484375 -13.4375 9.9375 C-11.79661289 13.06087402 -11.79661289 13.06087402 -9 15 C-9.433125 13.9171875 -9.433125 13.9171875 -9.875 12.8125 C-10.91666667 10.20833333 -11.95833333 7.60416667 -13 5 C-8.57359316 -0.7543289 -7.23071072 -1.31467468 0 0 Z " fill="#F4A77D" transform="translate(139,262)"/>
<path d="M0 0 C-0.5625 1.9375 -0.5625 1.9375 -2 4 C-5.625 4.75 -5.625 4.75 -9 5 C-9 6.98 -9 8.96 -9 11 C-8.484375 10.175 -7.96875 9.35 -7.4375 8.5 C-5 6 -5 6 -1.5625 5.4375 C2.65937244 6.10411144 4.30969326 6.65749768 7 10 C7.72284524 13.14995973 7.68056852 15.84463685 7 19 C4.96757543 22.14697999 3.44705992 23.52651348 -0.125 24.6953125 C-4.588585 25.52469485 -6.43797526 25.35386743 -10.375 22.875 C-15.33621207 17.44129154 -16.62068747 13.97750503 -16.421875 6.6015625 C-16 4 -16 4 -13.75 0.875 C-8.9441419 -2.40172143 -5.30301118 -2.65150559 0 0 Z " fill="#F7CAB2" transform="translate(270,185)"/>
<path d="M0 0 C0.99 0.66 1.98 1.32 3 2 C3 2.66 3 3.32 3 4 C-0.31114834 5.12880057 -3.58978257 6.21302675 -7 7 C-8.01111093 10.04913228 -8.01111093 10.04913228 -7 13 C-6.4740625 11.7934375 -6.4740625 11.7934375 -5.9375 10.5625 C-4 8 -4 8 -0.625 7 C3.34791005 7 4.92615222 7.55900324 8 10 C9.60729993 13.21459986 9.61930855 16.52388103 9 20 C6.5625 22.9375 6.5625 22.9375 4 25 C3.67 25.33 3.34 25.66 3 26 C-2.00718391 26.38516799 -5.01213531 26.12562368 -9 23 C-12.28709734 19.43115146 -14.88740809 16.07125718 -15.0703125 11.08203125 C-14.82780967 7.2804428 -14.14809901 5.22214852 -12 2 C-8.01999255 -0.6533383 -4.67212286 -0.83118291 0 0 Z " fill="#F67530" transform="translate(378,17)"/>
<path d="M0 0 C0.66 1.32 1.32 2.64 2 4 C-1.45846217 6.30564145 -2.9666714 6.08768106 -7 6 C-8.35618499 7.12534105 -8.35618499 7.12534105 -8.0625 10.0625 C-8.041875 11.031875 -8.02125 12.00125 -8 13 C-7.071875 11.7934375 -7.071875 11.7934375 -6.125 10.5625 C-3.65281262 7.58133286 -2.97917106 7.10879678 0.8125 6.6875 C4.85211856 7.08354104 6.29729155 7.98841058 9 11 C10.0625 14.375 10.0625 14.375 10 18 C8.02061533 21.74669241 6.52983947 23.64677369 3 26 C-0.06667238 26.54556906 -2.93027874 26.52423057 -6 26 C-10.9075907 22.37265035 -13.26690159 17.7632171 -14.8125 11.9375 C-15.07214274 7.86976366 -14.1361666 5.38315934 -11.5625 2.25 C-8.03756437 -0.5699485 -4.29809132 -0.08109606 0 0 Z " fill="#F7864A" transform="translate(63,199)"/>
<path d="M0 0 C0.33 0 0.66 0 1 0 C1.33 6.6 1.66 13.2 2 20 C4.31 18.02 6.62 16.04 9 14 C12.4375 12.625 12.4375 12.625 15 12 C15.66 13.65 16.32 15.3 17 17 C11.375 20.875 11.375 20.875 8 22 C8.33 22.99 8.66 23.98 9 25 C9.86625 24.319375 10.7325 23.63875 11.625 22.9375 C15 21 15 21 18.125 21 C22.02309425 22.35585887 24.15845882 24.31691764 26 28 C26.55931351 32.10163243 26.18659711 33.70596819 23.9375 37.25 C21.03757571 40.37173153 18.24107227 41.39413253 14 42 C10.09750546 41.04605689 9.27059878 40.40589817 7 37 C9.71182212 34.39665076 10.89133813 34.00543309 14.75 33.8125 C15.8225 33.874375 16.895 33.93625 18 34 C17.505 31.525 17.505 31.525 17 29 C14.42776477 29.45932772 13.09495764 29.9203581 11.0625 31.625 C9 33 9 33 6.25 32.6875 C5.5075 32.460625 4.765 32.23375 4 32 C3.34 30.02 2.68 28.04 2 26 C1.34 27.32 0.68 28.64 0 30 C0 20.1 0 10.2 0 0 Z " fill="#F6A57A" transform="translate(324,127)"/>
<path d="M0 0 C0.66 1.65 1.32 3.3 2 5 C1.43410156 5.32613281 0.86820313 5.65226562 0.28515625 5.98828125 C-0.44832031 6.42527344 -1.18179687 6.86226563 -1.9375 7.3125 C-2.66839844 7.74175781 -3.39929688 8.17101562 -4.15234375 8.61328125 C-6.29977412 9.95110254 -6.29977412 9.95110254 -7 13 C-5.948125 12.319375 -4.89625 11.63875 -3.8125 10.9375 C-1.37016057 9.56153413 -0.2248733 9.00535413 2.625 8.9375 C6.68237208 10.75264014 9.30862984 13.31478525 11 17.4375 C11 21.10832956 10.06547625 22.96633176 8 26 C4.6841667 28.78964313 2.11604655 30.04292487 -2.25 29.875 C-5 29 -5 29 -8 27 C-7 24 -7 24 -4.75 22.75 C-1.71763271 21.92299074 0.01120724 22.14605921 3 23 C3 21.35 3 19.7 3 18 C1.26424351 17.12563582 1.26424351 17.12563582 -1 17 C-2.7074998 18.28062485 -4.37373596 19.61767557 -6 21 C-8.15625 21.6328125 -8.15625 21.6328125 -10 22 C-11.03290841 20.06891037 -12.05098672 18.129882 -13.0625 16.1875 C-13.91521484 14.56908203 -13.91521484 14.56908203 -14.78515625 12.91796875 C-16 10 -16 10 -15 7 C-12.3828125 5.17578125 -12.3828125 5.17578125 -9.125 3.3125 C-8.05507812 2.68988281 -6.98515625 2.06726563 -5.8828125 1.42578125 C-3 0 -3 0 0 0 Z " fill="#F6752F" transform="translate(24,321)"/>
<path d="M0 0 C0.33 1.32 0.66 2.64 1 4 C-1.64 5.98 -4.28 7.96 -7 10 C-4.07582485 10.24650629 -4.07582485 10.24650629 -2.125 8.9375 C0.76606572 7.66202983 2.04190883 7.91777152 5 9 C7.74139156 11.01035381 9.57777436 12.56502336 10.55859375 15.8984375 C10.86398477 19.15178668 10.62830717 21.16704421 8.6328125 23.8125 C5.10839818 27.07062524 1.94520382 29.10750443 -3 29 C-5.875 27.75 -5.875 27.75 -8 26 C-8 25.01 -8 24.02 -8 23 C-4.3558226 20.5705484 -2.28758728 20.83820425 2 21 C2 19.35 2 17.7 2 16 C-0.47266765 16.34444881 -0.47266765 16.34444881 -3 17 C-3.33 17.66 -3.66 18.32 -4 19 C-6.32156597 19.40729228 -8.6568787 19.74438677 -11 20 C-11.86883706 18.42466914 -12.71959068 16.83935491 -13.5625 15.25 C-14.03816406 14.36828125 -14.51382812 13.4865625 -15.00390625 12.578125 C-16 10 -16 10 -16.01953125 7.91015625 C-14.42045936 4.91419397 -12.03792932 3.84654248 -9.125 2.1875 C-8.05507813 1.56230469 -6.98515625 0.93710938 -5.8828125 0.29296875 C-3 -1 -3 -1 0 0 Z " fill="#F6742D" transform="translate(28,114)"/>
<path d="M0 0 C0.33 1.65 0.66 3.3 1 5 C-1.64 6.98 -4.28 8.96 -7 11 C-3.81509993 11.2773501 -3.81509993 11.2773501 -1 9 C3.14394921 9.07534453 5.281508 9.37362236 8.4375 12.125 C10.44553668 15.81978748 10.65599565 17.84536087 10 22 C8.20104326 24.96728289 6.15299143 27.42350428 3 29 C-4.46666667 29.35555556 -4.46666667 29.35555556 -8 27 C-8 26.01 -8 25.02 -8 24 C-4.35206816 22.72746564 -0.8063457 21.67170806 3 21 C2.67 19.68 2.34 18.36 2 17 C-0.59642336 17.48081914 -2.23078365 18.14423978 -4.5 19.5625 C-7 21 -7 21 -11 21 C-11.89415055 19.25970698 -12.76475178 17.5072985 -13.625 15.75 C-14.11226563 14.77546875 -14.59953125 13.8009375 -15.1015625 12.796875 C-16 10 -16 10 -15.48828125 7.84375 C-13.49233616 5.37108311 -11.36882415 4.22583581 -8.5625 2.75 C-7.59441406 2.22921875 -6.62632812 1.7084375 -5.62890625 1.171875 C-3 0 -3 0 0 0 Z " fill="#F6732C" transform="translate(494,50)"/>
<path d="M0 0 C1.703125 2.43359375 1.703125 2.43359375 3.25 5.4375 C3.77078125 6.42621094 4.2915625 7.41492188 4.828125 8.43359375 C6 11 6 11 6 13 C7.32 12.67 8.64 12.34 10 12 C11.0625 13.8125 11.0625 13.8125 12 16 C11.67 16.99 11.34 17.98 11 19 C11 19.99 11 20.98 11 22 C8 24 8 24 5 24 C4.67 23.34 4.34 22.68 4 22 C1.55853792 22.94945748 -0.80817295 23.8984445 -3.125 25.125 C-5 26 -5 26 -8 26 C-9.9456969 22.1086062 -9.31543265 17.34322604 -9.375 13.0625 C-9.43107422 11.53979492 -9.43107422 11.53979492 -9.48828125 9.98632812 C-9.52102523 7.23765265 -9.48977147 4.70532159 -9 2 C-6.15998403 -0.8156172 -3.66310695 -1.99048994 0 0 Z " fill="#F6742F" transform="translate(470,486)"/>
<path d="M0 0 C2.31 4.29 4.62 8.58 7 13 C8.32 13 9.64 13 11 13 C11.33 13.99 11.66 14.98 12 16 C10.04070115 19.78601357 7.6321552 23.46954956 3.5 24.8125 C2.675 24.874375 1.85 24.93625 1 25 C-0.03125 25.53625 -1.0625 26.0725 -2.125 26.625 C-5 28 -5 28 -8 27 C-9.88357156 23.23285688 -9.27123486 18.7082707 -9.3125 14.5625 C-9.34150391 13.59505859 -9.37050781 12.62761719 -9.40039062 11.63085938 C-9.40876953 10.70208984 -9.41714844 9.77332031 -9.42578125 8.81640625 C-9.44036377 7.96506104 -9.45494629 7.11371582 -9.4699707 6.23657227 C-9 4 -9 4 -7.16088867 2.26147461 C-4.76051215 0.86019278 -2.80764469 0 0 0 Z " fill="#F78D54" transform="translate(82,185)"/>
<path d="M0 0 C2.31 4.29 4.62 8.58 7 13 C8.32 13 9.64 13 11 13 C11.33 14.65 11.66 16.3 12 18 C11.34 18 10.68 18 10 18 C10.66 19.65 11.32 21.3 12 23 C10.02 23.66 8.04 24.32 6 25 C5.67 24.34 5.34 23.68 5 23 C2.25323037 24.02022872 -0.17374222 25.10505344 -2.6875 26.625 C-5 28 -5 28 -7 28 C-9.00471458 23.99057084 -8.31639609 18.97111234 -8.375 14.5625 C-8.43107422 12.96825195 -8.43107422 12.96825195 -8.48828125 11.34179688 C-8.52089752 8.47700089 -8.49622811 5.82222472 -8 3 C-5.15360671 0.29164251 -3.89079869 0 0 0 Z " fill="#F6742F" transform="translate(397,3)"/>
<path d="M0 0 C2 3 2 3 1.625 6.1875 C1.315625 7.5796875 1.315625 7.5796875 1 9 C1.969375 9.144375 2.93875 9.28875 3.9375 9.4375 C7 10 7 10 8 11 C8.71028037 18.10280374 8.71028037 18.10280374 5.625 22 C3 24 3 24 1 24 C1 24.66 1 25.32 1 26 C-0.258125 26.04125 -1.51625 26.0825 -2.8125 26.125 C-3.52019531 26.14820313 -4.22789062 26.17140625 -4.95703125 26.1953125 C-7 26 -7 26 -10 24 C-10 23.01 -10 22.02 -10 21 C-6.5647952 18.70986347 -5.014669 18.82157027 -1 19 C-0.34 17.35 0.32 15.7 1 14 C-1.31 14.66 -3.62 15.32 -6 16 C-6.66 15.34 -7.32 14.68 -8 14 C-7.625 11.875 -7.625 11.875 -7 10 C-6.34 10 -5.68 10 -5 10 C-5 8.68 -5 7.36 -5 6 C-6.32 6 -7.64 6 -9 6 C-9.103125 6.61875 -9.20625 7.2375 -9.3125 7.875 C-10 10 -10 10 -13 12 C-13.99 12 -14.98 12 -16 12 C-16.75 9.3125 -16.75 9.3125 -17 6 C-12.89224226 -1.06534331 -7.51273985 -3.17846686 0 0 Z " fill="#F78950" transform="translate(440,300)"/>
<path d="M0 0 C2.0625 1.5 2.0625 1.5 3 4 C3.31383984 8.86451752 2.95835169 13.20824156 2 18 C2.94875 17.505 3.8975 17.01 4.875 16.5 C8 15 8 15 10 15 C10.33 16.65 10.66 18.3 11 20 C6 23 6 23 1 26 C0.10667969 26.56074219 -0.78664062 27.12148438 -1.70703125 27.69921875 C-4 29 -4 29 -6 29 C-7.34298925 23.64493594 -6.50639282 19.79310827 -5.0625 14.625 C-4.76956055 13.52091797 -4.76956055 13.52091797 -4.47070312 12.39453125 C-3.99119804 10.59346339 -3.49707535 8.79629804 -3 7 C-4.65 7 -6.3 7 -8 7 C-8.103125 7.78375 -8.20625 8.5675 -8.3125 9.375 C-9 12 -9 12 -12 14 C-14.1875 13.625 -14.1875 13.625 -16 13 C-16.3125 9.8125 -16.3125 9.8125 -16 6 C-11.20895577 0.20031488 -7.29488587 -0.92188118 0 0 Z " fill="#F7CAB2" transform="translate(254,303)"/>
<path d="M0 0 C0.99 0.33 1.98 0.66 3 1 C-1.8319548 13.89206664 -1.8319548 13.89206664 -7 18 C-7.680625 18.5775 -8.36125 19.155 -9.0625 19.75 C-14.75325911 23.42145749 -22.52947595 22.44067133 -29 22 C-31.68744696 21.26976165 -33.56966054 20.38876541 -36 19 C-36 18.67 -36 18.34 -36 18 C-34.95585937 17.82597656 -33.91171875 17.65195313 -32.8359375 17.47265625 C-26.1667047 15.80461323 -20.47366916 11.9272113 -14.625 8.4375 C-13.42632795 7.73149286 -12.22711284 7.02640687 -11.02734375 6.32226562 C-8.84439496 5.03912982 -6.66393874 3.75173725 -4.48681641 2.45874023 C-3.01577688 1.59584399 -1.52539758 0.76269879 0 0 Z " fill="#F2A87F" transform="translate(375,180)"/>
<path d="M0 0 C2.375 1.0625 2.375 1.0625 4 3 C4.25 6.6875 4.25 6.6875 4 10 C4.78375 10.12375 5.5675 10.2475 6.375 10.375 C9 11 9 11 11 13 C11.4375 16.3125 11.4375 16.3125 11 20 C8.35538822 23.21641973 5.3343285 26.59525756 1.0625 27.3359375 C-1.02937941 27.37555643 -2.93802922 27.36943643 -5 27 C-7 25 -7 25 -8 23 C-5.09907498 21.06604999 -4.10325263 20.69868059 -0.8125 20.375 C0.445625 20.25125 1.70375 20.1275 3 20 C3.33 18.68 3.66 17.36 4 16 C1.36 16 -1.28 16 -4 16 C-4.33 14.68 -4.66 13.36 -5 12 C-4.01 11.34 -3.02 10.68 -2 10 C-2 9.01 -2 8.02 -2 7 C-4.44480079 7.18828772 -4.44480079 7.18828772 -7 8 C-7.33 8.66 -7.66 9.32 -8 10 C-8.33 10.66 -8.66 11.32 -9 12 C-11.625 12.75 -11.625 12.75 -14 13 C-14.3125 10.3125 -14.3125 10.3125 -14 7 C-9.85270775 2.0680849 -6.57542515 -0.67096175 0 0 Z " fill="#F6752F" transform="translate(482,376)"/>
<path d="M0 0 C0.89589844 -0.01417969 1.79179688 -0.02835937 2.71484375 -0.04296875 C5.0625 0.1875 5.0625 0.1875 7.0625 2.1875 C7.1875 5.8125 7.1875 5.8125 7.0625 9.1875 C7.84625 9.31125 8.63 9.435 9.4375 9.5625 C12.0625 10.1875 12.0625 10.1875 14.0625 12.1875 C14.5 15.5 14.5 15.5 14.0625 19.1875 C11.52938706 22.35389117 8.96074124 24.92630431 5.0625 26.1875 C1.5 26.5625 1.5 26.5625 -1.9375 26.1875 C-3.875 24.1875 -3.875 24.1875 -4.9375 22.1875 C-2.03657498 20.25354999 -1.04075263 19.88618059 2.25 19.5625 C3.508125 19.43875 4.76625 19.315 6.0625 19.1875 C6.3925 17.5375 6.7225 15.8875 7.0625 14.1875 C4.4225 14.8475 1.7825 15.5075 -0.9375 16.1875 C-1.2675 14.5375 -1.5975 12.8875 -1.9375 11.1875 C-0.9475 10.5275 0.0425 9.8675 1.0625 9.1875 C1.0625 8.1975 1.0625 7.2075 1.0625 6.1875 C-1.38230079 6.37578772 -1.38230079 6.37578772 -3.9375 7.1875 C-4.6212045 8.51217746 -5.28714186 9.84613633 -5.9375 11.1875 C-8.5625 12.4375 -8.5625 12.4375 -10.9375 13.1875 C-11.25 10 -11.25 10 -10.9375 6.1875 C-8.5 3.3125 -8.5 3.3125 -5.9375 1.1875 C-4.27188601 -0.47811399 -2.27787295 0.01634055 0 0 Z " fill="#F6742F" transform="translate(46.9375,-0.1875)"/>
<path d="M0 0 C2.375 1.125 2.375 1.125 4 3 C4.25 6.1875 4.25 6.1875 4 9 C4.78375 9.28875 5.5675 9.5775 6.375 9.875 C9 11 9 11 11 13 C11.5625 16.25 11.5625 16.25 11 20 C7.8003852 23.75933854 4.09974146 26.77176723 -0.875 27.3125 C-4 27 -4 27 -6.375 25 C-6.91125 24.34 -7.4475 23.68 -8 23 C-5.28817788 20.39665076 -4.10866187 20.00543309 -0.25 19.8125 C0.8225 19.874375 1.895 19.93625 3 20 C3.33 18.68 3.66 17.36 4 16 C1.36 16 -1.28 16 -4 16 C-4.33 14.68 -4.66 13.36 -5 12 C-4.01 11.34 -3.02 10.68 -2 10 C-2.33 8.68 -2.66 7.36 -3 6 C-5.57737166 7.03094867 -6.76284247 7.5108626 -8 10.0625 C-9 12 -9 12 -11.0625 12.8125 C-11.701875 12.874375 -12.34125 12.93625 -13 13 C-14 12 -14 12 -14.375 9.75 C-13.84280559 5.84724101 -11.92521292 4.51704367 -9 2 C-5.51131349 -0.32579101 -4.10281481 -0.41865457 0 0 Z " fill="#F6742F" transform="translate(122,481)"/>
<path d="M0 0 C1.9375 1.25 1.9375 1.25 3 3 C2.95875 3.825 2.9175 4.65 2.875 5.5 C2.91625 6.325 2.9575 7.15 3 8 C5.37402417 9.80787306 5.37402417 9.80787306 8 11 C9 12 9 12 9.3125 15.25 C8.94849543 19.61805481 8.14877075 21.02143308 5 24 C0.56483694 26.71037743 -3.08646687 25.83280223 -8 25 C-8 22 -8 22 -6 20 C-2.875 19.875 -2.875 19.875 0 20 C0.33 18.35 0.66 16.7 1 15 C-1.31 15.33 -3.62 15.66 -6 16 C-6.6875 14.1875 -6.6875 14.1875 -7 12 C-5.5625 10.25 -5.5625 10.25 -4 9 C-4.33 8.01 -4.66 7.02 -5 6 C-6.91466367 6.12177688 -6.91466367 6.12177688 -9 7 C-10.01187895 8.65948148 -11.0126546 10.32580562 -12 12 C-12.99 12 -13.98 12 -15 12 C-15.34717213 8.26789965 -15.2922789 6.45929542 -13.25 3.25 C-8.81917954 -1.18082046 -6.18595744 -1.46213539 0 0 Z " fill="#F7C2A7" transform="translate(234,315)"/>
<path d="M0 0 C2.375 1.375 2.375 1.375 4 4 C4.77271763 9.64083872 4.21859848 14.7308286 2 20 C3.11375 19.34 4.2275 18.68 5.375 18 C8.75 16 8.75 16 11 16 C11.33 17.65 11.66 19.3 12 21 C9.73354942 22.34130761 7.46239903 23.67316234 5.1875 25 C4.54490234 25.3815625 3.90230469 25.763125 3.24023438 26.15625 C-1.66015625 29 -1.66015625 29 -5 29 C-6.70075969 23.61426099 -5.18276591 20.34132481 -2.91015625 15.46484375 C-1.92910668 12.80800995 -1.8348068 10.80828436 -2 8 C-3.32 7.67 -4.64 7.34 -6 7 C-6.391875 7.969375 -6.78375 8.93875 -7.1875 9.9375 C-9 13 -9 13 -11.6875 13.875 C-12.450625 13.91625 -13.21375 13.9575 -14 14 C-14.875 11.4375 -14.875 11.4375 -15 8 C-11.29259168 1.87904398 -7.30242374 -0.74514528 0 0 Z " fill="#F78448" transform="translate(458,287)"/>
<path d="M0 0 C2.875 1.5 2.875 1.5 5 4 C5.66989691 9.74197348 4.57678898 14.48123858 3 20 C3.928125 19.34 4.85625 18.68 5.8125 18 C9 16 9 16 12 16 C12.33 17.65 12.66 19.3 13 21 C10.75820623 22.36965208 8.50827662 23.72052808 6.25 25.0625 C5.29867187 25.64741211 5.29867187 25.64741211 4.328125 26.24414062 C-0.50498766 29.08862881 -0.50498766 29.08862881 -3.21582031 28.60327148 C-3.80459961 28.40419189 -4.39337891 28.2051123 -5 28 C-4.5554103 24.36918408 -4.00182009 21.00599559 -2.9375 17.5 C-1.95975223 13.84974167 -1.84651443 10.76039651 -2 7 C-3.32 7 -4.64 7 -6 7 C-6.103125 7.78375 -6.20625 8.5675 -6.3125 9.375 C-7 12 -7 12 -10 14 C-10.99 14 -11.98 14 -13 14 C-13.82719644 7.14608666 -13.82719644 7.14608666 -11.65234375 4.1328125 C-7.98196938 0.76090813 -5.1205638 -1.11316604 0 0 Z " fill="#F77530" transform="translate(142,469)"/>
<path d="M0 0 C3.43331508 3.43331508 5.6841613 6.99681235 8.1875 11.125 C8.65091797 11.846875 9.11433594 12.56875 9.59179688 13.3125 C12.70472471 18.46556464 14.14381525 22.95838774 13 29 C9.48722186 33.83006995 5.25103905 35.7181006 0 39 C0 26.13 0 13.26 0 0 Z " fill="#F46417" transform="translate(0,359)"/>
<path d="M0 0 C2.375 1 2.375 1 4 3 C5.33782867 8.73355144 4.94868688 12.49782528 3 18 C3.94875 17.505 4.8975 17.01 5.875 16.5 C9 15 9 15 11 15 C13 18 13 18 13 21 C10.37785672 22.50519387 7.75255792 24.00431319 5.125 25.5 C4.37863281 25.92925781 3.63226563 26.35851562 2.86328125 26.80078125 C1.79013672 27.40986328 1.79013672 27.40986328 0.6953125 28.03125 C0.03547363 28.40830078 -0.62436523 28.78535156 -1.30419922 29.17382812 C-3 30 -3 30 -5 30 C-8.09212381 23.81575238 -3.69179367 13.28836513 -2 7 C-3.90584196 7.20376178 -3.90584196 7.20376178 -6 8 C-6.99 9.32 -7.98 10.64 -9 12 C-9 8.37 -9 4.74 -9 1 C-5.94306678 -0.52846661 -3.37015453 -0.23242445 0 0 Z " fill="#F6742C" transform="translate(9,126)"/>
<path d="M0 0 C2.125 1.6875 2.125 1.6875 3.125 2.6875 C3.65118714 8.38990021 2.95992674 13.29740271 1.125 18.6875 C1.90875 18.1925 2.6925 17.6975 3.5 17.1875 C6.125 15.6875 6.125 15.6875 8.125 15.6875 C8.125 13.0475 8.125 10.4075 8.125 7.6875 C8.455 7.6875 8.785 7.6875 9.125 7.6875 C9.125 17.2575 9.125 26.8275 9.125 36.6875 C8.795 36.6875 8.465 36.6875 8.125 36.6875 C7.795 31.7375 7.465 26.7875 7.125 21.6875 C5.536875 22.6775 3.94875 23.6675 2.3125 24.6875 C-2.5 27.6875 -2.5 27.6875 -5.875 27.6875 C-7.0812891 23.4920417 -6.61695767 21.23659143 -4.9375 17.25 C-3.34880604 13.21002223 -2.3988546 10.09184498 -2.875 5.6875 C-4.195 5.3575 -5.515 5.0275 -6.875 4.6875 C-7.101875 5.63625 -7.32875 6.585 -7.5625 7.5625 C-8.875 10.6875 -8.875 10.6875 -11.5 12.0625 C-12.28375 12.26875 -13.0675 12.475 -13.875 12.6875 C-14.875 11.6875 -14.875 11.6875 -15.25 8.9375 C-14.875 5.6875 -14.875 5.6875 -12.8125 2.9375 C-8.60134701 -0.28806399 -5.08159022 -2.31985641 0 0 Z " fill="#F79A68" transform="translate(371.875,124.3125)"/>
<path d="M0 0 C2.3125 1.5 2.3125 1.5 4 4 C4.75559029 8.99062721 4.33623707 13.47354067 2 18 C2.928125 17.505 3.85625 17.01 4.8125 16.5 C8 15 8 15 11 15 C11.33 16.65 11.66 18.3 12 20 C4.14944924 25.04179815 4.14944924 25.04179815 -0.4375 24.875 C-3 24 -3 24 -5 23 C-4.33333333 17.66666667 -3.66666667 12.33333333 -3 7 C-4.65 7 -6.3 7 -8 7 C-8.33 8.65 -8.66 10.3 -9 12 C-10.65614657 12.38218767 -12.32457024 12.71395102 -14 13 C-15 12 -15 12 -15.375 9.25 C-14.87441378 4.91158607 -13.36083307 3.68866646 -10 1 C-6.33098084 -1.01796054 -3.97130042 -1.42559502 0 0 Z " fill="#E2692A" transform="translate(189,23)"/>
<path d="M0 0 C2.4375 1.5625 2.4375 1.5625 4 4 C4.61697478 9.34711475 3.43306992 13.8946884 2 19 C2.78375 18.505 3.5675 18.01 4.375 17.5 C7 16 7 16 9 16 C9.3671875 18.7578125 9.3671875 18.7578125 9 22 C6.4453125 24.1171875 6.4453125 24.1171875 3.125 25.875 C1.48917969 26.76832031 1.48917969 26.76832031 -0.1796875 27.6796875 C-3 29 -3 29 -5 29 C-6.27377052 23.55752596 -5.66120195 20.41156018 -3.703125 15.22265625 C-2.69151864 12.02485615 -2.78755376 9.32832437 -3 6 C-4.65 6.33 -6.3 6.66 -8 7 C-8.33 8.65 -8.66 10.3 -9 12 C-10.65614657 12.38218767 -12.32457024 12.71395102 -14 13 C-14.33 12.67 -14.66 12.34 -15 12 C-14.7807132 8.12593328 -14.5604155 5.70985964 -12.125 2.625 C-8.26236671 -0.3287784 -4.73516173 -0.41536506 0 0 Z " fill="#F6752F" transform="translate(503,365)"/>
<path d="M0 0 C6 0 6 0 8.4375 1.4375 C10.82522283 5.35336544 9.95354397 8.6527405 9 13 C8.3974699 15.02024799 7.75679435 17.03233469 7 19 C8.093125 18.34 9.18625 17.68 10.3125 17 C12.93707538 15.41535071 13.8256378 15 17 15 C17.33 16.65 17.66 18.3 18 20 C15.56876731 21.36663387 13.13113837 22.7183867 10.6875 24.0625 C9.99720703 24.45244141 9.30691406 24.84238281 8.59570312 25.24414062 C6.77074312 26.24037483 4.88726123 27.12752842 3 28 C2.01 27.67 1.02 27.34 0 27 C0 18.09 0 9.18 0 0 Z " fill="#F77631" transform="translate(0,232)"/>
<path d="M0 0 C0.680625 -0.02578125 1.36125 -0.0515625 2.0625 -0.078125 C4 0.25 4 0.25 5.73828125 1.390625 C7.54581417 4.05435772 7.29285871 6.06582559 7.1875 9.25 C7.16042969 10.301875 7.13335937 11.35375 7.10546875 12.4375 C7.07066406 13.365625 7.03585937 14.29375 7 15.25 C7 16.24 7 17.23 7 18.25 C7.66 18.25 8.32 18.25 9 18.25 C9.4375 20.4375 9.4375 20.4375 9 23.25 C6.92554039 25.36446296 4.67166538 26.97389967 2 28.25 C0.68 28.25 -0.64 28.25 -2 28.25 C-3.59551142 23.75355873 -2.33319127 20.80554882 -0.76953125 16.54296875 C0.26968145 13.4464314 0.65519315 10.49118439 1 7.25 C-0.32 6.92 -1.64 6.59 -3 6.25 C-3.4125 7.19875 -3.825 8.1475 -4.25 9.125 C-6.0040131 12.25716624 -6.70851757 13.11500606 -10 14.25 C-11 13.25 -11 13.25 -11.3125 9.4375 C-11.27831671 6.25845399 -11.15861406 5.46330856 -9.1875 2.8125 C-6.17305954 0.65932824 -3.62521565 0.08239126 0 0 Z " fill="#F67732" transform="translate(503,259.75)"/>
<path d="M0 0 C1.44213867 2.04125977 1.44213867 2.04125977 2.91796875 4.69140625 C3.44970703 5.63564453 3.98144531 6.57988281 4.52929688 7.55273438 C5.07650391 8.54595703 5.62371094 9.53917969 6.1875 10.5625 C6.74630859 11.55958984 7.30511719 12.55667969 7.88085938 13.58398438 C9.26220405 16.05151461 10.63478849 18.52351834 12 21 C10.1875 23 10.1875 23 8 25 C7.01 25 6.02 25 5 25 C1.04 18.07 1.04 18.07 -3 11 C-5.12364481 10.77390663 -5.12364481 10.77390663 -6.625 12.5 C-7.305625 13.2425 -7.305625 13.2425 -8 14 C-10 11 -10 11 -9.6875 8 C-8.37598945 2.27704485 -8.37598945 2.27704485 -5.625 0.25 C-3 -1 -3 -1 0 0 Z " fill="#F67B39" transform="translate(38,314)"/>
<path d="M0 0 C1.52734375 2.22265625 1.52734375 2.22265625 2.9375 5.0625 C5.12207509 9.33715202 7.43605339 13.36420503 10.1171875 17.34375 C11 19 11 19 11 22 C9.02 22.66 7.04 23.32 5 24 C3.68085608 21.92062051 2.36961787 19.83691981 1.0625 17.75 C0.68931641 17.16347656 0.31613281 16.57695312 -0.06835938 15.97265625 C-1.8965661 13.04093735 -3.46275382 10.44519771 -4 7 C-4.66 7 -5.32 7 -6 7 C-6.33 8.98 -6.66 10.96 -7 13 C-9.0625 11.3125 -9.0625 11.3125 -11 9 C-10.9045831 5.18332392 -9.5723639 2.77023805 -7 0 C-3.84380035 -1.05206655 -2.96540982 -1.30570883 0 0 Z " fill="#F69E6E" transform="translate(354,133)"/>
<path d="M0 0 C-0.06510417 1.98567708 -0.13020833 3.97135417 -0.1953125 5.95703125 C-0.13254462 8.31359719 -0.13254462 8.31359719 2 11 C4.20725073 11.36362818 4.20725073 11.36362818 6.625 11.1875 C7.85089844 11.14689453 7.85089844 11.14689453 9.1015625 11.10546875 C9.72804687 11.07066406 10.35453125 11.03585937 11 11 C11 12.98 11 14.96 11 17 C2.42 17 -6.16 17 -15 17 C-13.36592009 13.73184019 -11.69094823 10.92816306 -9.625 7.9375 C-8.74714844 6.65166016 -8.74714844 6.65166016 -7.8515625 5.33984375 C-3.62604341 0 -3.62604341 0 0 0 Z " fill="#F6874F" transform="translate(157,369)"/>
<path d="M0 0 C-1.34696169 4.04088506 -3.11275702 4.49851484 -6.78515625 6.57421875 C-7.36083847 6.90291458 -7.93652069 7.23161041 -8.52964783 7.57026672 C-10.36918539 8.61797669 -12.21561287 9.65281119 -14.0625 10.6875 C-15.31102157 11.3956481 -16.55907475 12.10462269 -17.80664062 12.81445312 C-20.86571715 14.55259132 -23.9310993 16.27925401 -27 18 C-28.11669922 14.27294922 -28.11669922 14.27294922 -27.06640625 11.81640625 C-19.63110897 0.67311656 -13.24719831 -0.8372527 0 0 Z " fill="#F47135" transform="translate(359,85)"/>
<path d="M0 0 C2.375 2 2.375 2 4 4 C1.64031256 6.09749995 0.45383006 6.96905704 -2.75 7.1875 C-3.86375 7.0946875 -3.86375 7.0946875 -5 7 C-5.66 8.98 -6.32 10.96 -7 13 C-6.34 13 -5.68 13 -5 13 C-4.76023437 12.360625 -4.52046875 11.72125 -4.2734375 11.0625 C-3 9 -3 9 -0.9765625 8.25 C5.39567772 7.57255253 5.39567772 7.57255253 8.5625 9.8125 C10 12 10 12 10 14 C2.41 14 -5.18 14 -13 14 C-13 6 -13 6 -10.625 3.0625 C-6.85179378 0.09783797 -4.81488239 -0.48148824 0 0 Z " fill="#F6742E" transform="translate(449,498)"/>
<path d="M0 0 C0 9.9 0 19.8 0 30 C-5.45752606 24.54247394 -9.87557738 17.93504127 -10.30859375 10.04296875 C-9.7376544 6.26320569 -7.75712958 4.56914347 -5 2 C-2 0 -2 0 0 0 Z " fill="#F56718" transform="translate(512,117)"/>
<path d="M0 0 C-0.14168137 1.43791516 -0.28851043 2.8753237 -0.4375 4.3125 C-0.51871094 5.11300781 -0.59992188 5.91351563 -0.68359375 6.73828125 C-1 9 -1 9 -2 12 C-1.236875 11.690625 -0.47375 11.38125 0.3125 11.0625 C2.18789677 10.32106407 4.08684652 9.63771783 6 9 C6.66 10.65 7.32 12.3 8 14 C5.75944862 15.53663484 3.50937727 17.05400704 1.25 18.5625 C0.29867188 19.21895508 0.29867188 19.21895508 -0.671875 19.88867188 C-5.50498766 23.08557452 -5.50498766 23.08557452 -8.21582031 22.61694336 C-9.09898926 22.3115564 -9.09898926 22.3115564 -10 22 C-12.01871344 16.48482211 -9.2908658 11.0832821 -7 6 C-2.5498155 0 -2.5498155 0 0 0 Z " fill="#E28053" transform="translate(408,222)"/>
<path d="M0 0 C4.11698171 4.81301818 4.53321458 8.35124368 4.25 14.375 C4.23195313 15.11105469 4.21390625 15.84710938 4.1953125 16.60546875 C4.14859176 18.40421736 4.07686183 20.20228711 4 22 C-3 12.89398281 -3 12.89398281 -3 9 C-3.99 9.495 -3.99 9.495 -5 10 C-5.33 10.99 -5.66 11.98 -6 13 C-6.99 13 -7.98 13 -9 13 C-10.25 10.9375 -10.25 10.9375 -11 8 C-9.78912704 4.42869114 -7.98497811 1.71634771 -4.9375 -0.5 C-3 -1 -3 -1 0 0 Z " fill="#F6742D" transform="translate(508,43)"/>
<path d="M0 0 C36.96 0 73.92 0 112 0 C112 0.33 112 0.66 112 1 C110.56666979 1.39063507 109.12807321 1.76198474 107.6875 2.125 C106.48673828 2.43824219 106.48673828 2.43824219 105.26171875 2.7578125 C103 3 103 3 100 1 C100.495 2.98 100.495 2.98 101 5 C99.1875 6.5625 99.1875 6.5625 97 8 C96.01 7.67 95.02 7.34 94 7 C93.62244064 6.16797562 93.24488129 5.33595123 92.85588074 4.47871399 C91.12254473 1.56913944 91.12254473 1.56913944 87.18452454 1.36076355 C85.55862574 1.32847529 83.93204187 1.32388063 82.3059082 1.34057617 C80.9738887 1.32485062 80.9738887 1.32485062 79.61495972 1.30880737 C76.67654811 1.27998062 73.73930935 1.28635778 70.80078125 1.29296875 C68.76481137 1.27985833 66.72885452 1.26455614 64.69291687 1.24714661 C59.33182957 1.20720703 53.97108182 1.19710038 48.60986328 1.19311523 C43.1401941 1.18380068 37.67072584 1.1463977 32.20117188 1.11132812 C21.46745737 1.04666104 10.73389224 1.01349575 0 1 C0 0.67 0 0.34 0 0 Z " fill="#F6C8B1" transform="translate(103,242)"/>
<path d="M0 0 C1.98 0 3.96 0 6 0 C5.67 2.31 5.34 4.62 5 7 C5.928125 6.34 6.85625 5.68 7.8125 5 C11 3 11 3 14 3 C14.33 4.65 14.66 6.3 15 8 C12.56969216 9.53351528 10.13194897 11.05183502 7.6875 12.5625 C6.99720703 13.00013672 6.30691406 13.43777344 5.59570312 13.88867188 C4.92861328 14.29794922 4.26152344 14.70722656 3.57421875 15.12890625 C2.65515747 15.70233765 2.65515747 15.70233765 1.7175293 16.28735352 C0 17 0 17 -3 16 C-4.30757523 13.2964145 -3.97685244 11.91020141 -3.22265625 8.984375 C-2.83980469 7.91703125 -2.45695312 6.8496875 -2.0625 5.75 C-1.68222656 4.67234375 -1.30195312 3.5946875 -0.91015625 2.484375 C-0.45962891 1.25460937 -0.45962891 1.25460937 0 0 Z " fill="#F7742F" transform="translate(68,0)"/>
<path d="M0 0 C0 4.71629284 -2.90539838 7.60544881 -6 11 C-8.85443863 12.69907061 -10.06162545 13.15216885 -13.3125 12.625 C-13.869375 12.41875 -14.42625 12.2125 -15 12 C-15.42061747 9.0556777 -15.51933756 6.88347079 -13.98046875 4.265625 C-9.8484495 -0.51522372 -6.06700082 -0.7280401 0 0 Z " fill="#F7894E" transform="translate(301,61)"/>
<path d="M0 0 C3.6607519 1.22025063 3.92339441 2.126491 5.6875 5.4375 C6.34298828 6.64212891 6.34298828 6.64212891 7.01171875 7.87109375 C8 10 8 10 8 12 C3.71 12 -0.58 12 -5 12 C-5.43472498 6.7833002 -5.43472498 6.7833002 -5 4 C-2.6875 1.4375 -2.6875 1.4375 0 0 Z " fill="#F67631" transform="translate(261,500)"/>
<path d="M0 0 C0 3.38023517 -0.87455622 5.83468937 -2 9 C-2.99 9 -3.98 9 -5 9 C-5.103125 9.61875 -5.20625 10.2375 -5.3125 10.875 C-6 13 -6 13 -9 15 C-9.99 15 -10.98 15 -12 15 C-12.87968819 11.56121888 -13.2655503 9.63437017 -11.875 6.3125 C-8.58497677 2.25480468 -5.11055834 0.73007976 0 0 Z " fill="#E4966D" transform="translate(285,385)"/>
<path d="M0 0 C1.98 0 3.96 0 6 0 C5.78931408 3.68700366 4.9954447 5.00512471 2.5 7.8125 C-1.36672386 10.83043081 -5.30758692 10.46924131 -10 10 C-10.66 8.68 -11.32 7.36 -12 6 C-8.3558226 3.5705484 -6.28758728 3.83820425 -2 4 C-1.34 2.68 -0.68 1.36 0 0 Z " fill="#F77631" transform="translate(260,0)"/>
<path d="M0 0 C0.66 0.33 1.32 0.66 2 1 C-0.14055951 4.00379572 -2.28830452 7.00237866 -4.4375 10 C-5.04916016 10.85851562 -5.66082031 11.71703125 -6.29101562 12.6015625 C-6.87431641 13.41367187 -7.45761719 14.22578125 -8.05859375 15.0625 C-8.59798584 15.81660156 -9.13737793 16.57070313 -9.69311523 17.34765625 C-10.12438721 17.89292969 -10.55565918 18.43820312 -11 19 C-11.33 19 -11.66 19 -12 19 C-12.48234079 15.06088357 -12.83058426 11.51408588 -10.875 7.94921875 C-7.79092546 4.19853435 -4.62827523 1.68300917 0 0 Z " fill="#F79158" transform="translate(119,341)"/>
<path d="M0 0 C0 5.61 0 11.22 0 17 C-2.31954564 13.90727248 -3.71720383 11.69759103 -5.1875 8.25 C-5.53167969 7.45078125 -5.87585938 6.6515625 -6.23046875 5.828125 C-6.48441406 5.22484375 -6.73835938 4.6215625 -7 4 C-1.125 0 -1.125 0 0 0 Z " fill="#F6732C" transform="translate(512,459)"/>
<path d="M0 0 C0.08090971 1.62418745 0.13914995 3.24951745 0.1875 4.875 C0.22230469 5.77992188 0.25710937 6.68484375 0.29296875 7.6171875 C0.19628906 8.40351563 0.09960938 9.18984375 0 10 C-3 12 -3 12 -6 12 C-6.48979592 4.65306122 -6.48979592 4.65306122 -4.125 1.5 C-2 0 -2 0 0 0 Z " fill="#E36C2F" transform="translate(80,400)"/>
<path d="M0 0 C0 1.32 0 2.64 0 4 C-4.50353262 5.75747614 -8.17639811 6.19294408 -13 6 C-12 3 -12 3 -9.875 1.3125 C-6.39918304 -0.274286 -3.77907627 -0.2222986 0 0 Z " fill="#E2946B" transform="translate(371,338)"/>
<path d="M0 0 C2.6635969 0.35994553 4.58183452 0.71161002 6.8125 2.25 C8.39364795 4.58011277 8.22337696 6.24501755 8 9 C6.68 9.33 5.36 9.66 4 10 C0.06153846 5.69230769 0.06153846 5.69230769 -0.25 2.1875 C-0.1675 1.465625 -0.085 0.74375 0 0 Z " fill="#EA8C57" transform="translate(104,282)"/>
<path d="M0 0 C-3.67832017 4.52615993 -7.41086363 8.39424999 -12 12 C-11.76404051 5.98303301 -11.76404051 5.98303301 -9.7734375 3.421875 C-6.5828951 0.57492947 -4.25504796 -0.62574235 0 0 Z " fill="#F79E6E" transform="translate(147,148)"/>
<path d="M0 0 C0.33 0 0.66 0 1 0 C1.48091058 2.20795422 1.95965179 4.416381 2.4375 6.625 C2.83775391 8.46964844 2.83775391 8.46964844 3.24609375 10.3515625 C3.90911451 13.56017072 4.48729384 16.76447568 5 20 C3.68 20.33 2.36 20.66 1 21 C-0.17426264 18.65147472 -0.11508173 17.26225935 -0.09765625 14.6484375 C-0.09443359 13.79765625 -0.09121094 12.946875 -0.08789062 12.0703125 C-0.07951172 11.18085938 -0.07113281 10.29140625 -0.0625 9.375 C-0.05798828 8.4778125 -0.05347656 7.580625 -0.04882812 6.65625 C-0.03702591 4.43743352 -0.02056155 2.21874982 0 0 Z " fill="#F7C4AA" transform="translate(279,176)"/>
<path d="M0 0 C2.13745922 0.25146579 3.45925779 0.45925779 5 2 C5.125 4.5 5.125 4.5 5 7 C4 8 4 8 1.4375 8.0625 C0.633125 8.041875 -0.17125 8.02125 -1 8 C-1.66 6.35 -2.32 4.7 -3 3 C-1.75 1.4375 -1.75 1.4375 0 0 Z " fill="#F4803A" transform="translate(228,432)"/>
<path d="M0 0 C2.5 0.125 2.5 0.125 3.5 1.125 C3.6875 3.5625 3.6875 3.5625 3.5 6.125 C2.84 6.785 2.18 7.445 1.5 8.125 C-2.03571429 7.58928571 -2.03571429 7.58928571 -3.5 6.125 C-3.625 3.625 -3.625 3.625 -3.5 1.125 C-2.5 0.125 -2.5 0.125 0 0 Z " fill="#F46418" transform="translate(377.5,29.875)"/>
<path d="M0 0 C1.2065625 0.0309375 1.2065625 0.0309375 2.4375 0.0625 C2.81883299 2.0539056 3.15075582 4.05529077 3.4375 6.0625 C2.4375 7.0625 2.4375 7.0625 0 7.25 C-2.5625 7.0625 -2.5625 7.0625 -4.5625 5.0625 C-3.80953264 0.09291543 -3.80953264 0.09291543 0 0 Z " fill="#F7742B" transform="translate(481.5625,185.9375)"/>
<path d="M0 0 C2.97 0 5.94 0 9 0 C9.33 1.32 9.66 2.64 10 4 C8.1875 5.5625 8.1875 5.5625 6 7 C3 6 3 6 1.3125 2.9375 C0.879375 1.968125 0.44625 0.99875 0 0 Z " fill="#F4B292" transform="translate(194,243)"/>
<path d="M0 0 C1.67542976 0.28604898 3.34385343 0.61781233 5 1 C5.38218767 2.65614657 5.71395102 4.32457024 6 6 C5 7 5 7 2.5625 7.1875 C0 7 0 7 -2 5 C-1.46428571 1.46428571 -1.46428571 1.46428571 0 0 Z " fill="#F47633" transform="translate(60,212)"/>
<path d="M0 0 C1 1 1 1 1.0625 3.5625 C1.041875 4.366875 1.02125 5.17125 1 6 C-1.375 6.625 -1.375 6.625 -4 7 C-6 5 -6 5 -6.125 2.375 C-6.08375 1.59125 -6.0425 0.8075 -6 0 C-3.49749232 -1.25125384 -2.59701335 -0.83774624 0 0 Z " fill="#F46F19" transform="translate(50,118)"/>
<path d="M0 0 C3.69230769 0.69230769 3.69230769 0.69230769 5 2 C5.04063832 3.66617115 5.042721 5.33388095 5 7 C2.625 7.625 2.625 7.625 0 8 C-0.66 7.34 -1.32 6.68 -2 6 C-1.44444444 1.44444444 -1.44444444 1.44444444 0 0 Z " fill="#F5BB9C" transform="translate(266,196)"/>
<path d="M0 0 C1.32 0.33 2.64 0.66 4 1 C4.36263859 6.8022175 3.25684543 10.63999211 1 16 C0.67 16 0.34 16 0 16 C0 10.72 0 5.44 0 0 Z " fill="#F6671A" transform="translate(0,237)"/>
<path d="M0 0 C3.13864649 4.18486198 3.91020754 5.88182985 4 11 C2.68 12.65 1.36 14.3 0 16 C0 10.72 0 5.44 0 0 Z " fill="#F59363" transform="translate(215,370)"/>
<path d="M0 0 C0.33 0 0.66 0 1 0 C1 4.62 1 9.24 1 14 C2.32 14.66 3.64 15.32 5 16 C4.67 17.32 4.34 18.64 4 20 C2.35 20 0.7 20 -1 20 C-0.67 13.4 -0.34 6.8 0 0 Z " fill="#F79C70" transform="translate(227,91)"/>
<path d="M0 0 C0 0.33 0 0.66 0 1 C-1.5778125 1.0928125 -1.5778125 1.0928125 -3.1875 1.1875 C-7.6291735 2.13408616 -9.11593757 3.59156258 -12 7 C-12.04241723 4.66705225 -12.04092937 2.33297433 -12 0 C-8.85067544 -3.14932456 -3.3620833 -2.28621664 0 0 Z " fill="#F46E1A" transform="translate(52,111)"/>
<path d="M0 0 C1.98 1.65 3.96 3.3 6 5 C5.67 5.99 5.34 6.98 5 8 C3.0625 8.8125 3.0625 8.8125 1 9 C0.34 8.34 -0.32 7.68 -1 7 C-0.625 3.375 -0.625 3.375 0 0 Z " fill="#E26426" transform="translate(83,418)"/>
<path d="M0 0 C1.32 0 2.64 0 4 0 C4 1.98 4 3.96 4 6 C2.1875 6.6875 2.1875 6.6875 0 7 C-1.75 5.5625 -1.75 5.5625 -3 4 C-1.75 2 -1.75 2 0 0 Z " fill="#F56B29" transform="translate(326,468)"/>
<path d="M0 0 C2.0625 0.4375 2.0625 0.4375 4 1 C4.625 2.875 4.625 2.875 5 5 C4.34 5.66 3.68 6.32 3 7 C0.375 6.625 0.375 6.625 -2 6 C-1.125 1.125 -1.125 1.125 0 0 Z " fill="#F7752C" transform="translate(474,176)"/>
<path d="M0 0 C0.66 0 1.32 0 2 0 C4.04169485 2.90548882 5 4.40142046 5 8 C3.35 8.33 1.7 8.66 0 9 C0 6.03 0 3.06 0 0 Z " fill="#F46519" transform="translate(466,495)"/>
<path d="M0 0 C-0.68707031 0.40992188 -1.37414062 0.81984375 -2.08203125 1.2421875 C-3.43361328 2.05042969 -3.43361328 2.05042969 -4.8125 2.875 C-6.15248047 3.67550781 -6.15248047 3.67550781 -7.51953125 4.4921875 C-9.37294724 5.61883092 -11.19529917 6.79686611 -13 8 C-13 5.75 -13 5.75 -12 3 C-8.08919496 0.11835418 -4.75458122 -1.64540563 0 0 Z " fill="#F7894F" transform="translate(320,50)"/>
<path d="M0 0 C0.66 0 1.32 0 2 0 C5 4.38461538 5 4.38461538 5 7 C3.35 7.66 1.7 8.32 0 9 C0 6.03 0 3.06 0 0 Z " fill="#F46418" transform="translate(394,14)"/>
<path d="M0 0 C0 0.66 0 1.32 0 2 C-1.95927063 3.7143618 -3.95880212 5.38405168 -6 7 C-6.33 5.02 -6.66 3.04 -7 1 C-4 0 -4 0 0 0 Z " fill="#F37939" transform="translate(228,426)"/>
<path d="M0 0 C2.5722047 1.28610235 3.00974907 2.33393981 4 5 C3.625 7.25 3.625 7.25 3 9 C2.01 9 1.02 9 0 9 C0 6.03 0 3.06 0 0 Z " fill="#F47C3E" transform="translate(79,195)"/>
<path d="M0 0 C0 1.65 0 3.3 0 5 C-1.65 5.33 -3.3 5.66 -5 6 C-5 5.01 -5 4.02 -5 3 C-1.55555556 0 -1.55555556 0 0 0 Z " fill="#F58855" transform="translate(163,359)"/>
<path d="M0 0 C4.29 0 8.58 0 13 0 C13 0.33 13 0.66 13 1 C11.5899511 1.41879658 10.17145188 1.80921039 8.75 2.1875 C7.96109375 2.40792969 7.1721875 2.62835938 6.359375 2.85546875 C4 3 4 3 0 0 Z " fill="#F6C7AE" transform="translate(202,242)"/>
<path d="M0 0 C1.98 0.495 1.98 0.495 4 1 C3.34 2.32 2.68 3.64 2 5 C1.01 4.67 0.02 4.34 -1 4 C-0.67 2.68 -0.34 1.36 0 0 Z " fill="#EA9C6F" transform="translate(136,272)"/>
<path d="M0 0 C1.32 0 2.64 0 4 0 C4 1.32 4 2.64 4 4 C2.35 4 0.7 4 -1 4 C-0.67 2.68 -0.34 1.36 0 0 Z " fill="#EA6319" transform="translate(451,90)"/>
<path d="M0 0 C-0.66 1.65 -1.32 3.3 -2 5 C-2.99 5 -3.98 5 -5 5 C-5 3.68 -5 2.36 -5 1 C-3 0 -3 0 0 0 Z " fill="#F6803F" transform="translate(297,67)"/>
<path d="M0 0 C1.5 1.1875 1.5 1.1875 3 3 C3.1875 5.6875 3.1875 5.6875 3 8 C2.34 8 1.68 8 1 8 C0.67 5.36 0.34 2.72 0 0 Z " fill="#EA6929" transform="translate(424,101)"/>
</svg>
